<?xml version="1.0" encoding="UTF-8"?>
<!-- Created with Inkscape (http://www.inkscape.org/) -->
<svg width="666.67" height="666.67" version="1.1" viewBox="0 0 666.67 666.67" xml:space="preserve" xmlns="http://www.w3.org/2000/svg"><g fill-rule="evenodd" stroke="#000" stroke-linejoin="round" stroke-width="2"><path d="m524.96 50.018 60.342 40.542c-59.889 139.06-108.86 157.03-80.488 206.15 35.234 73.516 46.329 155.36 46.329 177.74-8e-5 43.184-127.42 191.19-217.81 191.19-90.387-1e-3 -217.81-148-217.81-191.19-4e-5 -22.364 11.072-104.05 46.272-177.62 28.431-49.245-20.541-67.212-80.43-206.27l60.342-40.542c27.916 23.266 92.122 122.5 148.81 122.51 13.276-3.6357 27.542-5.616 42.82-5.616 15.406 0 29.782 2.0135 42.987 5.6619 56.516-0.056 120.72-99.29 148.64-122.56z" fill="#e3c900" stop-color="#000000" stroke-linecap="round"/><g><path d="m604.29 1.0232c0 25.545-10.755 75.271-18.991 89.537l-60.342-40.542c29.091-24.246 56.738-42.94 79.334-48.995zm-541.92 0c0 25.545 10.755 75.271 18.991 89.537l60.342-40.542c-29.091-24.246-56.738-42.94-79.334-48.995z" stop-color="#000000" stroke-linecap="round"/><path d="m471.17 340.53c-1.442 5.3818-6.4468 17.91-10.117 21.579-16.983 3.5388-38.462 17.592-50.879 33.764-20.664 23.874-30.346 39.011-38.307 68.721 0-26.332 9.1366-63.903 22.079-81.18 15.085-19.647 36.994-34.503 67.211-40.8zm-276.18-0.51142c1.442 5.3818 6.4468 17.91 10.117 21.579 16.983 3.5388 38.462 17.592 50.879 33.764 20.664 23.874 30.346 39.011 38.307 68.721 0-26.332-9.1366-63.903-22.079-81.18-15.085-19.647-36.994-34.503-67.211-40.8z" color="#000000" stroke-linecap="square"/><circle cx="333.33" cy="591.14" r="34.839" stop-color="#000000" stroke-linecap="square"/></g></g></svg>
