<?xml version="1.0" encoding="UTF-8"?>
<!-- Created with Inkscape (http://www.inkscape.org/) -->
<svg width="666.67" height="666.67" version="1.1" viewBox="0 0 666.67 666.67" xmlns="http://www.w3.org/2000/svg">
 <g stroke="#000">
  <path d="m225.27 82.28-174.73-80.515 34.409 146.54 117.99 32.733c-102.22 58.701-152.06 178.82-121.51 292.65 30.55 113.83 133.87 192.98 251.9 192.98 118.03 0 221.35-79.151 251.9-192.98 30.55-113.83-19.287-233.95-121.51-292.65l117.99-32.733 34.409-146.54-174.73 80.515-108.07-72.464z" fill="#795825" stop-color="#000000" stroke-width="1.9984"/>
  <path d="m167.67 205.09c30.651 36.418 96.782 54.446 164.09 54.801 67.308 0.35498 135.59-18.674 167.11-54.905-10.952-9.1953-22.657-17.283-35.144-24.203-33.768 22.133-79.308 32.503-128.82 32.764-49.511 0.26112-97.575-10.99-131.97-32.764-12.602 6.9866-24.407 15.157-35.271 24.308z" fill="#ad4311" stop-color="#000000" stroke-width="1.998"/>
 </g>
</svg>
