<?xml version="1.0" encoding="UTF-8"?>
<!-- Created with Inkscape (http://www.inkscape.org/) -->
<svg width="666.67" height="666.67" version="1.1" viewBox="0 0 666.67 666.67" xml:space="preserve" xmlns="http://www.w3.org/2000/svg"><g transform="translate(-2.7594e-5 8.3279)"><path d="m461.08 135.92c0.29878 13.282 31.663 27.409 51.616 34.075 62.683 20.876 56.441 50.301 56.441 50.301s-0.91965 350.17 0 367.33-18.766 59.294-97.03 61.386c-95.327 0-188.95 2e-3 -277.56 0-78.263-2.0926-97.949-44.226-97.03-61.386s0-367.33 0-367.33-6.2416-29.425 56.441-50.301c19.953-6.6659 51.317-20.793 51.616-34.075" fill="#6a7f94" stop-color="#000000" stroke="#000" stroke-width="2"/><path d="m445.83 144.26c0.29878 12.652 31.663 26.108 51.616 32.458 62.683 19.886 56.441 47.915 56.441 47.915s-0.91965 333.55 0 349.9-18.766 56.481-97.03 58.474c-84.594 3.7e-4 -167.68 2e-3 -246.31 0-78.263-1.9933-97.949-42.127-97.03-58.474s0-349.9 0-349.9-6.2416-28.029 56.441-47.915c19.953-6.3496 51.317-19.806 51.616-32.458" fill="#839cb1" stop-color="#000000"/><g fill="#6a7f94"><path d="m478.96 162.06c-25.552 21.085-81.401 35.131-144.32 35.339-62.32 0.20565-118.33-13.209-145.16-33.786l32.796-30.358h225.99z" stop-color="#000000"/><path d="m453.19 647.77c-82.333 3.8e-4 -163.19 2e-3 -239.72 0-76.171-2.0142-95.331-42.569-94.436-59.087-0.89507-16.518 18.265-57.073 94.436-59.087 76.529-2e-3 157.39-3.8e-4 239.72 0 76.171 2.0142 95.331 42.569 94.436 59.087 0.89502 16.518-18.265 57.073-94.436 59.087z" stop-color="#000000"/><path d="m479.7 64.923c-17.624 26.34-76.955 44.737-145.04 44.975s-128.21-17.742-146.98-43.954v54.059c18.769 26.213 78.893 44.192 146.98 43.954s127.42-18.635 145.04-44.975z" stop-color="#000000" stroke="#000" stroke-linejoin="bevel" stroke-width="2"/><path d="m334.66 109.9c-68.09 0.23796-128.88-18.667-146.98-43.954 18.42-18.42 81.325-30.901 146.01-30.901s123.37 7.2334 146.01 29.881c-17.624 26.34-76.955 44.737-145.04 44.975z" stop-color="#000000" stroke="#000" stroke-linejoin="bevel" stroke-width="2"/></g><path d="m335.27 94.927c-40.854 0.14278-77.326-11.2-88.189-26.373 11.052-11.052 48.795-18.541 87.608-18.541 38.813 0 74.02 4.34 87.608 17.928-10.574 15.804-46.173 26.842-87.027 26.985z" display="none" fill="none" stop-color="#000000" stroke="#000" stroke-linejoin="bevel" stroke-width="2"/></g><g stroke="#000" stroke-linejoin="bevel" stroke-width="2"><path d="m247.08 76.883v46.785c10.864 15.269 47.336 26.612 88.189 26.469 40.854-0.14277 76.452-11.181 87.027-27.232v-46.634" fill="#8d866e" stop-color="#000000"/><path transform="translate(-2.7594e-5 8.3279)" d="m422.54 98.271c-24.918 7.2686-55.404 11.514-87.884 11.628-32.169 0.11243-62.56-3.8416-87.652-10.809" fill="none" stop-color="#000000"/><path d="m428.26 31.905-5.9657 44.366c-10.574 15.804-46.173 26.842-87.027 26.985-40.854 0.14278-77.326-11.2-88.189-26.373l-8.6798-44.978" fill="#fdb920" stop-color="#000000"/><ellipse cx="333.33" cy="31.905" rx="94.931" ry="22.541" fill="#fdb920" stop-color="#000000"/></g></svg>
