<?xml version="1.0" encoding="UTF-8"?>
<!-- Created with Inkscape (http://www.inkscape.org/) -->
<svg width="666.67" height="666.67" version="1.1" viewBox="0 0 666.67 666.67" xml:space="preserve" xmlns="http://www.w3.org/2000/svg"><g transform="translate(-33.798 36.592)" stroke="#000" stroke-linecap="round" stroke-width="2"><rect transform="rotate(-45)" x="-102.13" y="456.93" width="500" height="25" fill="#d3993c" stop-color="#000000" stroke-linejoin="bevel"/><g stroke-linejoin="bevel"><path d="m283 261.36c28.38-16.251 28.952-42.587 82.958-45.93-16.532 13.481-26.861 27.643-26.596 37.234 57.579-29.967 88.973-94.149 118.09-153.72 18.017 99.064-5.9663 158.74-39.894 209.57 28.989-13.564 42.801-42.305 58.511-69.149 13.094 27.894 13.124 50.734 10.106 74.468s-11.986 48.806-23.936 65.957-15.565 16.927-40.503 47.181c-24.938 30.255-36.063 75.117-95.337 145.38s-179.62 76.363-244.3 11.91c-68.067-67.831-60.591-185.22 9.2695-244.7 69.861-59.485 97.652-56.211 135.5-62.002s27.759 0.0564 56.14-16.195z" fill="#f36200" stop-color="#000000"/><path d="m114.58 552.09c-51.051-50.873-37.265-136.14 6.9521-183.53 44.217-47.391 96.232-48.815 130.15-58.578s65.223-53.261 65.223-53.261 8.1641 33.55-58.391 85.831c95.17-25.326 130.63-84.671 178-147.62-6.8212 118.13-111.47 144.95-90.279 178.66 21.732 14.2 61.629-10.337 118.99-69.698-8.653 90.216-74.053 118.7-101.7 142.81-27.65 24.104-34.298 42.235-65.716 96.452s-134.72 57.273-183.23 8.9327z" fill="#f39800" stop-color="#000000"/><path d="m269.99 528.31c-40.635 32.647-91.587 32.284-127.97-3.9712-38.288-38.155-15.457-114.98 10.702-142.83s51.093-26.455 82.337-24.805c-53.418 14.868-54.933 38.967-54.863 62.357 0.0544 18.023-7.2578 38.889-20.747 50.753 34.753-26.893 68.719-46.277 101.85-46.341-41.02 26.691-58.176 52.672-45.444 69.207 4.8411 6.287 27.447 15.483 39.989-6.2875 16.203-38.396 32.638-51.639 49.504-63.978 19.483-14.253 46.241-23.602 65.995-31.033-79.864 44.397-49.988 87.546-101.35 136.93z" fill="#faee00" stop-color="#000000"/></g><path d="m508.42 137.78 11.835-62.843 6.8699 26.983 13.516-71.774 11.822 46.435 11.807-62.695 6.9175 27.17 14.06-74.662 19.189 75.369-83.599 83.599z" fill="#fff" fill-opacity=".99313" stop-color="#000000"/><path d="m526.1 155.45 62.843-11.835-26.983-6.8699 71.774-13.516-46.435-11.822 62.695-11.807-27.17-6.9175 74.662-14.06-75.369-19.189-83.599 83.599z" fill="#fff" fill-opacity=".99313" stop-color="#000000"/></g></svg>
