<?xml version="1.0" encoding="UTF-8"?>
<!-- Created with Inkscape (http://www.inkscape.org/) -->
<svg width="666.67" height="666.67" version="1.1" viewBox="0 0 666.67 666.67" xml:space="preserve" xmlns="http://www.w3.org/2000/svg"><g transform="translate(-33.798 36.592)"><g><path d="m135.02 282.17-83.436 103.07-5.5215 139.26 162.58 83.436 158.28-60.123 24.54-178.53-112.88-78.528z" fill="#28b7d8" stop-color="#000000"/><g stroke="#000" stroke-linecap="round" stroke-width="2"><rect transform="rotate(-45)" x="-102.13" y="456.93" width="500" height="25" fill="#d3993c" stop-color="#000000" stroke-linejoin="bevel"/><path d="m508.42 137.78 11.835-62.843 6.8699 26.983 13.516-71.774 11.822 46.435 11.807-62.695 6.9175 27.17 14.06-74.662 19.189 75.369-83.599 83.599z" fill="#fff" fill-opacity=".99313" stop-color="#000000"/><path d="m526.1 155.45 62.843-11.835-26.983-6.8699 71.774-13.516-46.435-11.822 62.695-11.807-27.17-6.9175 74.662-14.06-75.369-19.189-83.599 83.599z" fill="#fff" fill-opacity=".99313" stop-color="#000000"/></g><g stroke="#000" stroke-linecap="round" stroke-width="2"><rect transform="rotate(-45)" x="-161.16" y="456.93" width="140" height="25" fill="#cad6d4" stop-color="#000000" stroke-linejoin="bevel"/><path d="m192.84 350.11 43.174 77.748 77.748 43.174-175.62 54.699z" fill="#cad6d4" stop-color="#000000"/><path d="m138.14 525.73 97.872-97.872" fill="#dbe0e3" stop-color="#000000"/></g></g><g opacity=".49841"><g fill="#004fa4"><path d="m257.87 521.28-107.34 9.7041 2.9812 11.592 55.128 65.357z" opacity="1" stop-color="#000000"/><path d="m153.52 426.86 67.319 43.031 65.278-35.648-45.833-56.481-13.824-18.056-20.026-16.983z" opacity="1" stop-color="#000000"/><path d="m366.93 547.81-81.74-79.772 90.262 17.776z" opacity="1" stop-color="#000000"/></g><g fill="#04e0eb"><path d="m153.52 426.86 52.913-84.138-71.405-60.556z" opacity="1" stop-color="#000000"/><path d="m51.589 385.23-5.5215 139.26 107.45 18.078-33.144-128.88z" opacity="1" stop-color="#000000"/><path d="m208.64 607.93 49.227-86.654 109.05 26.531z" opacity="1" stop-color="#000000"/><path d="m278.58 290.75 89.024 61.93-127.33 25.076-13.824-18.056z" opacity="1" stop-color="#000000"/><path d="m349.08 413.87 26.373 71.943-90.262-17.776-14.004-25.643 14.93-8.1531z" opacity="1" stop-color="#000000"/></g><g fill="#00c0c7"><path d="m145.39 510.97 40.527-63.402-32.399-20.71-33.144-13.161z" opacity="1" stop-color="#000000"/><path d="m349.08 413.87 26.373 71.943 16.018-116.53-23.86-16.598-54.277 10.69z" opacity="1" stop-color="#000000"/><path d="m230.44 523.76-9.609-53.869 50.348-27.495 14.004 25.643 33.046 32.25-60.361 20.99z" opacity="1" stop-color="#000000"/></g><g fill="#042fc3"><path d="m135.02 282.17 18.491 144.69-101.93-41.626z" opacity="1" stop-color="#000000"/><path d="m135.02 282.17 91.431 77.539 52.128-68.95z" opacity="1" stop-color="#000000"/><path d="m208.64 607.93-55.128-65.357-107.45-18.078z" opacity="1" stop-color="#000000"/><path d="m145.39 510.97 5.1468 20.013 79.909-7.2244-9.609-53.869-34.92-22.321z" opacity="1" stop-color="#000000"/><path d="m286.11 434.24 62.963-20.37-35.746-50.498-73.05 14.387z" opacity="1" stop-color="#000000"/><path d="m366.93 547.81-48.694-47.521-60.361 20.99z" opacity="1" stop-color="#000000"/></g></g><path d="m135.02 282.17-83.436 103.07-5.5215 139.26 162.58 83.436 158.28-60.123 24.54-178.53-112.88-78.528z" fill="none" stop-color="#000000" stroke="#000" stroke-linecap="round" stroke-width="2"/></g></svg>
