<?xml version="1.0" encoding="UTF-8"?>
<!-- Created with Inkscape (http://www.inkscape.org/) -->
<svg width="666.67" height="666.67" version="1.1" viewBox="0 0 666.67 666.67" xml:space="preserve" xmlns="http://www.w3.org/2000/svg"><defs><filter id="filter119437" x="-.192" y="-.192" width="1.384" height="1.384" color-interpolation-filters="sRGB"><feGaussianBlur stdDeviation="26.912607"/></filter><filter id="filter121355" x="-.075" y="-.075" width="1.15" height="1.15" color-interpolation-filters="sRGB"><feGaussianBlur stdDeviation="20.833334"/></filter><filter id="filter121369" x="-.108" y="-.108" width="1.216" height="1.216" color-interpolation-filters="sRGB"><feGaussianBlur stdDeviation="30.000001"/></filter><filter id="filter121373" x="-.048" y="-.048" width="1.096" height="1.096" color-interpolation-filters="sRGB"><feGaussianBlur stdDeviation="13.333337"/></filter></defs><g transform="translate(-33.798 36.592)"><circle cx="217.98" cy="445.9" r="168.2" fill="#dada4e" filter="url(#filter119437)" opacity=".7" stop-color="#000000"/><path d="m379.69 437.57c113.05-74.909 320.78-250.26 320.78-250.26s-172.96 107.5-262.27 156.3c-76.922 42.035-235.64 117.72-235.64 117.72s75.491-158.5 117.7-235.66c48.847-89.28 156.3-262.27 156.3-262.27s-175.35 207.73-250.26 320.78c-72.884 109.99-192.51 345.89-192.51 345.89s235.89-119.62 345.89-192.51z" fill="#fefeb5" filter="url(#filter121355)" opacity=".25" stop-color="#000000"/><g stroke="#000" stroke-linecap="round" stroke-width="2"><g><rect transform="rotate(-45)" x="-102.13" y="456.93" width="500" height="25" fill="#d3993c" stop-color="#000000" stroke-linejoin="bevel"/><path d="m508.42 137.78 11.835-62.843 6.8699 26.983 13.516-71.774 11.822 46.435 11.807-62.695 6.9175 27.17 14.06-74.662 19.189 75.369-83.599 83.599z" fill="#fff" fill-opacity=".99313" stop-color="#000000"/><path d="m526.1 155.45 62.843-11.835-26.983-6.8699 71.774-13.516-46.435-11.822 62.695-11.807-27.17-6.9175 74.662-14.06-75.369-19.189-83.599 83.599z" fill="#fff" fill-opacity=".99313" stop-color="#000000"/></g><g><rect transform="rotate(-45)" x="-161.16" y="456.93" width="140" height="25" fill="#cad6d4" stop-color="#000000" stroke-linejoin="bevel"/><path d="m192.84 350.11 43.174 77.748 77.748 43.174-175.62 54.699z" fill="#cad6d4" stop-color="#000000"/><path d="m138.14 525.73 97.872-97.872" fill="#dbe0e3" stop-color="#000000"/></g></g><g><path d="m627.35-36.592-593.55 666.67 666.67-593.55 4.7e-4 -73.119z" fill="#dada4e" filter="url(#filter121373)" opacity=".8" stop-color="#000000"/><path d="m126.68 279.39c40.655-109.73 152.93-315.98 152.93-315.98s-59.321 148.11-82.541 224.33c-21.416 70.297-41.414 141.5-52.158 214.2-6.0418 40.882-6.7657 123.79-6.7657 123.79s82.911-0.72388 123.79-6.7657c72.697-10.744 143.9-30.742 214.2-52.158 76.219-23.22 224.33-82.541 224.33-82.541s-206.26 112.27-315.98 152.93c-113.39 42.013-350.68 92.88-350.68 92.88s50.867-237.29 92.88-350.68z" fill="#dada4e" filter="url(#filter121369)" stop-color="#000000"/><path d="m379.69 437.57c113.05-74.909 320.78-250.26 320.78-250.26s-172.96 107.5-262.27 156.3c-76.922 42.035-235.64 117.72-235.64 117.72s75.491-158.5 117.7-235.66c48.847-89.28 156.3-262.27 156.3-262.27s-175.35 207.73-250.26 320.78c-72.884 109.99-192.51 345.89-192.51 345.89s235.89-119.62 345.89-192.51z" fill="#fefeb5" filter="url(#filter121355)" opacity=".75" stop-color="#000000"/></g></g></svg>
