<?xml version="1.0" encoding="UTF-8"?>
<!-- Created with Inkscape (http://www.inkscape.org/) -->
<svg width="666.67" height="666.67" version="1.1" viewBox="0 0 666.67 666.67" xml:space="preserve" xmlns="http://www.w3.org/2000/svg"><g stroke="#000" stroke-width="2"><path d="m65.461 197.37c39.937 3.4722 123.95 71.4 177.77 46.362 83.424-47.276 174.21-114.08 267.96-158.66 28.832-13.711 49.826-25.453 89.865-33.13 40.039-7.6769 46.716 5.8382 49.101 42.522 2.3853 36.684-13.232 85.081-20.528 106.78-43.93 130.66-105.08 240.82-176.34 311.06s-140.78 121.78-227.3 125.94c-38.294 1.84-86.774-12.375-105.48-45.837-28.838-51.572 7.1664-116.58 24.938-175.5 17.772-58.922-75.228-119.47-97.004-152.82-21.776-33.352-22.91-70.183 17.027-66.71z" fill="#5182ce" stop-color="#000000"/><g transform="matrix(.99569 -.36186 .36186 .99569 -161.41 104.96)"><circle cx="223.08" cy="497.27" r="32.584" stop-color="#000000"/><circle cx="321.03" cy="497.27" r="32.584" stop-color="#000000"/><circle cx="269.36" cy="414.52" r="32.584" stop-color="#000000"/><circle cx="358.42" cy="414.52" r="32.584" stop-color="#000000"/></g><g transform="matrix(1.0545 -.067037 .067037 1.0545 -7.4573 -26.964)"><circle cx="365.12" cy="258.42" r="32.584" stop-color="#000000"/><circle cx="439.59" cy="216.33" r="32.584" stop-color="#000000"/><circle cx="514.05" cy="172.43" r="32.584" stop-color="#000000"/></g><path d="m124.06 219.58c31.728 15.168 67.776 31.865 98.51 29.187l-79.762 128.36c-11.787-29.706-41.926-58.316-65.839-81.825z" fill="#e0c62e" stop-color="#000000"/></g></svg>
