<?xml version="1.0" encoding="UTF-8"?>
<!-- Created with Inkscape (http://www.inkscape.org/) -->
<svg width="666.67" height="666.67" version="1.1" viewBox="0 0 666.67 666.67" xmlns="http://www.w3.org/2000/svg">
 <g fill-rule="evenodd" stroke="#000" stroke-width="2">
  <path d="m62.406 110.53 48.872 418.8 221.05 111.28 221.05-111.28 54.887-429.32-204.51 21.053-165.41-96.992z" fill="#53220d" stop-color="#000000"/>
  <path d="m276.69 484.96c63.598-12.857 111.86-46.492 131.58-118.8 0 0-22.941 47.876-98.181 47.876-60.049 0-107.57-67.872-107.57-135.7 0-41.163 25.373-85.853 45.598-105.41-7.7476 27.128-13.215 56.484-12.482 83.451 1.2631 46.453 47.616 104.26 92.553 104.26 51.947 0 87.766-54.255 87.766-54.255s1.5628-80.319-46.277-80.319c-35.307 0-36.306 49.332-28.723 72.34-10.097-5.8296-22.872-29.178-22.872-48.936 0-27.218 26.804-61.702 59.574-61.702 72.006 0 85.638 70.221 85.638 137.23 0 90.875-75.149 168.09-151.6 168.09-17.831 0-35.01-8.1227-35.01-8.1227z" fill="#c71d1d" stop-color="#000000"/>
 </g>
</svg>
