<?xml version="1.0" encoding="UTF-8"?>
<!-- Created with Inkscape (http://www.inkscape.org/) -->
<svg width="666.67" height="666.67" version="1.1" viewBox="0 0 666.67 666.67" xml:space="preserve" xmlns="http://www.w3.org/2000/svg"><g stroke="#000" stroke-linecap="round"><g><path d="m2.0079 664.93 139.93-522 522.63-139.57-139.93 522z" fill="#6a7f94" stop-color="#000000" stroke-width="2"/><g fill="#839cb1" opacity=".3" stroke-opacity=".6" stroke-width="2"><path d="m664.57 3.36-334.9 252.37-187.73-112.8z" opacity="1" stop-color="#000000"/><g stroke-linejoin="bevel"><path d="m524.64 525.36-194.97-269.64-327.66 409.2z" opacity="1" stop-color="#000000"/><path d="m2.0079 664.93 327.66-409.2-187.73-112.8z" opacity="1" stop-color="#000000"/><path d="m664.57 3.36-334.9 252.37 194.97 269.64z" opacity="1" stop-color="#000000"/></g></g><path d="m320.83 141.69c3.3293 79.487-87.657 143.46-107.21 215.15-19.551 71.689 113.42 167.94 113.42 167.94 33.019-50.193 95.895-53.029 119.19-102.6s-4.5764-114.47-27.616-166.55c-7.9882 24.5-5.5211 78.624-51.007 87.259 24.424-70.631-4.7256-141.25-46.774-201.2z" fill="#40d209" stop-color="#000000" stroke-linejoin="bevel" stroke-width="1.7653"/></g><g fill="none" stroke-linejoin="bevel" stroke-width="2"><path d="m2.0079 664.93 368.03-208.04-228.11-313.96z" stop-color="#000000"/><path d="m664.57 3.36-294.52 453.53 154.6 68.474z" stop-color="#000000"/><path d="m141.94 142.93 228.11 313.96 294.52-453.53z" stop-color="#000000"/><path d="m2.0079 664.93 368.03-208.04 154.6 68.474z" stop-color="#000000"/></g></g></svg>
