<?xml version="1.0" encoding="UTF-8"?>
<!-- Created with Inkscape (http://www.inkscape.org/) -->
<svg width="666.67" height="666.67" version="1.1" viewBox="0 0 666.67 666.67" xml:space="preserve" xmlns="http://www.w3.org/2000/svg"><g stroke="#000" stroke-linecap="round" stroke-linejoin="round" stroke-width="2"><path d="m93.985 488.72-43.609-358.65 282.96-130.08 282.96 130.08-43.609 358.65-239.35 177.94z" fill="#acacac" stop-color="#000000"/><path d="m222.34 524.47-4.2553-105.32-88.83 35.106 36.702-225.53-57.979-5.3191-11.17-82.447 181.38-88.298 55.142 47.34 55.142-47.34 181.38 88.298-11.17 82.447-57.979 5.3191 36.702 225.53-88.83-35.106-4.2553 105.32-110.99 78.723z" fill="#1e2061" stop-color="#000000"/><path d="m328.17 457.55c-4.2463-4.2463-28.169-74.447-28.169-74.447l-7.4447 42.254-56.338-6.6398 16.7-40.644-32.394-20.523 23.139-23.742-37.425-35.01 63.984-7.0423 31.992 77.264 26.358-16.097-32.193-32.596 36.955-37.425 36.955 37.425-32.193 32.596 26.358 16.097 31.992-77.264 63.984 7.0423-37.425 35.01 23.139 23.742-32.394 20.523 16.7 40.644-56.338 6.6398-7.4447-42.254s-23.712 69.99-28.169 74.447c-2.4345 2.4345-7.8942 2.4345-10.329 0z" fill="#ae2a2a" stop-color="#000000"/><path d="m479.26 198.65-21.53-37.591-46.482 1.2196 59.115-46.456 20.8 36.315 58.427-8.7562zm-291.86 0 21.53-37.591 46.482 1.2196-59.115-46.456-20.8 36.315-58.427-8.7562z" fill="#acacac" stop-color="#000000"/><path d="m439.1 270.02-105.77-141.45-105.77 141.45zm-158.65 208.37h105.77l-52.884 70.724z" fill="#ffd500" stop-color="#000000"/><path d="m280.45 199.3h105.77l-52.884 70.724z" fill="#1e2061" stop-color="#000000"/></g></svg>
