<?xml version="1.0" encoding="UTF-8"?>
<!-- Created with Inkscape (http://www.inkscape.org/) -->
<svg width="500pt" height="500pt" version="1.1" viewBox="0 0 666.67 666.67" xmlns="http://www.w3.org/2000/svg">
 <g fill-rule="evenodd">
  <path d="m211.96 1.0966-109.94 49.249c-21.081 67.906-28.116 139.92-33.3 210.91-4.5325 62.067-1.184 128.18 2.0175 186.69 26.506 47.124 68.47 88.619 111.08 124.28 45.494 38.071 102.67 66.716 151.52 93.354 48.841-26.639 106.02-55.283 151.51-93.354 42.609-35.658 84.573-77.153 111.08-124.28 3.2015-58.511 6.5521-124.62 2.0197-186.69-5.1836-70.984-12.221-143-33.302-210.91l-109.94-49.249c-41.922 12.24-80.272 18.133-121.08 18.147-41.002 0.014267-79.397-6.1885-121.66-18.147zm-0.84813 23.801s84.523 15.232 127.27 15.845c42.611 0.61034 127.27-12.157 127.27-12.157l40.939 37.525-341.4-4.065zm-83.907 48.198 79.99 80.596-101.96 43.156zm416.64 0 21.974 123.63-101.96-43.034zm-356.72 15.965 290.89 1.5078-72.286 73.625h-144.79zm-85.261 289.11 88.917 37.932 61.389-25.02-50.736 144.49c-40.928-28.626-74.302-60.274-104.05-93.371zm462.01 0 3.3497 64.027c-29.336 37.818-66.331 65.424-103.07 93.371l-48.251-144.49 59.99 25.02zm-302.92 45.159h145.05l35.245 129.79h-215.72zm-31.194 156.1 203.28 2.1974-101.64 51.331z" fill="#49445f" stop-color="#000000" stroke="#000" stroke-linejoin="round" stroke-width="2" style="paint-order:stroke fill markers"/>
  <path d="m545.8 277.06a79.216 99.902 0 0 1-79.216 99.902 79.216 99.902 0 0 1-79.216-99.902 79.216 99.902 0 0 1 79.216-99.902 79.216 99.902 0 0 1 79.216 99.902zm-266.51 0a79.216 99.902 0 0 1-79.216 99.902 79.216 99.902 0 0 1-79.216-99.902 79.216 99.902 0 0 1 79.216-99.902 79.216 99.902 0 0 1 79.216 99.902z" fill="#e0e0e0" stop-color="#000000" stroke="#000" stroke-linejoin="round" stroke-width="2" style="paint-order:stroke fill markers"/>
  <path d="m509.48 277.06a42.887 63.44 0 0 1-42.887 63.44 42.887 63.44 0 0 1-42.887-63.44 42.887 63.44 0 0 1 42.887-63.44 42.887 63.44 0 0 1 42.887 63.44zm-266.51 0a42.887 63.44 0 0 1-42.887 63.44 42.887 63.44 0 0 1-42.887-63.44 42.887 63.44 0 0 1 42.887-63.44 42.887 63.44 0 0 1 42.887 63.44z" fill="#ff2121" stop-color="#000000" style="paint-order:stroke fill markers"/>
  <path d="m478.87 277.06a12.278 33.503 0 0 1-12.278 33.503 12.278 33.503 0 0 1-12.278-33.503 12.278 33.503 0 0 1 12.278-33.503 12.278 33.503 0 0 1 12.278 33.503zm-266.51 0a12.278 33.503 0 0 1-12.278 33.503 12.278 33.503 0 0 1-12.278-33.503 12.278 33.503 0 0 1 12.278-33.503 12.278 33.503 0 0 1 12.278 33.503z" fill="#232323" stop-color="#000000" style="paint-order:stroke fill markers"/>
 </g>
</svg>
