<?xml version="1.0" encoding="UTF-8"?>
<!-- Created with Inkscape (http://www.inkscape.org/) -->
<svg width="666.67" height="666.67" version="1.1" viewBox="0 0 666.67 666.67" xml:space="preserve" xmlns="http://www.w3.org/2000/svg"><path d="m665.55 410.76c0-132.36-101.49-268.73-201.75-342.76-47.551-35.115-94.825-56.21-130.47-56.212-35.644-0.001679-82.918 21.094-130.47 56.208-100.26 74.038-201.75 210.4-201.75 342.76 0 139.05 99.472 244.12 332.21 244.13 232.74 2e-3 332.21-105.07 332.21-244.12z" fill="#ce9e06" fill-rule="evenodd" stop-color="#000000" stroke="#000" stroke-linejoin="round" stroke-width="2"/><path d="m313.58 83.084-7.9005-20.541-28.442 24.689-7.3079-23.899-29.824 17.974 1.3826-19.751-38.659 6.4618c47.584-35.139 94.858-56.235 130.5-56.233 35.644 0.0017 82.918 21.097 130.5 56.236l-38.659-6.4618 1.3826 19.751-29.824-17.974-7.3079 23.899-28.442-24.689-7.9005 20.541-19.751-27.061z" fill="#f7e17b" fill-rule="evenodd" stop-color="#000000" stroke="#000" stroke-linejoin="round" stroke-width="2"/><g transform="matrix(-1.1187 0 0 1.1187 706.63 -39.567)"><g fill-rule="evenodd"><path transform="matrix(1 0 -.087156 .99619 0 0)" d="m261.12 362.61c0 34.258-21.5 62.03-48.023 62.03-26.522 0-48.023-27.772-48.023-62.03 0-10.784 2.1306-20.926 5.9153-29.837l19.473 24.343c0 15.171 8.8918 27.47 19.86 27.47 9.2339 0 16.996-8.7162 19.214-20.504l31.349-7.6105c0.15702 2.0622 0.23398 4.0886 0.23398 6.1382zm208.33-3e-3c5.9716 34.258 32.313 62.03 58.835 62.03 26.522 0 43.182-27.772 37.21-62.03-1.8798-10.784-5.7783-20.926-11.116-29.837l-15.23 24.343c2.6446 15.171-4.1034 27.47-15.072 27.47-9.2339 0-18.515-8.7162-22.788-20.504l-32.676-7.6105c0.20244 2.0622 0.47871 4.0886 0.83598 6.1382z" fill="#8b67c7" stop-color="#000000"/><path transform="matrix(1 0 -.087156 .99619 0 0)" d="m213.1 300.58c-18.173 0-33.988 13.039-42.107 32.193l19.473 24.343c0-15.171 8.8918-27.47 19.86-27.47s19.86 12.299 19.86 27.47c0 2.3995-0.22242 4.7271-0.64674 6.9664l31.349-7.6105c-2.3567-31.344-22.853-55.892-47.789-55.892zm293.57-3e-3c18.173 0 36.261 13.039 47.719 32.193l-15.23 24.343c-2.6446-15.171-13.68-27.47-24.649-27.47s-17.717 12.299-15.072 27.47c0.41826 2.3995 1.0464 4.7271 1.8611 6.9664l-32.676-7.6105c-3.1069-31.344 13.111-55.892 38.046-55.892z" fill="#5e3297" stop-color="#000000"/><path transform="matrix(1 0 -.087156 .99619 0 0)" d="m210.33 329.64c10.969 0 19.86 12.299 19.86 27.47 0 2.3995-0.22242 4.7271-0.64674 6.9664-2.2178 11.788-9.9798 20.504-19.214 20.504-10.969 0-19.86-12.299-19.86-27.47s8.8918-27.47 19.86-27.47zm313.76 54.938c10.969 0 17.717-12.299 15.072-27.47-2.6446-15.171-13.68-27.47-24.649-27.47s-17.717 12.299-15.072 27.47c0.41826 2.3995 1.0464 4.7271 1.8611 6.9664 4.2726 11.788 13.554 20.504 22.788 20.504z" fill="#232323" stop-color="#000000" stroke="#232323" stroke-linejoin="round" stroke-width="1.7912"/><path transform="matrix(1 0 -.25387 .96724 0 0)" d="m277.36 337.96a13.153 21.265 0 0 1-13.153 21.265 13.153 21.265 0 0 1-13.153-21.265 13.153 21.265 0 0 1 13.153-21.265 13.153 21.265 0 0 1 13.153 21.265zm284.25-3e-3a24.789 11.284 54.751 0 0 23.95 21.265 24.789 11.284 54.751 0 0 2.3562-21.265 24.789 11.284 54.751 0 0-23.95-21.265 24.789 11.284 54.751 0 0-2.3562 21.265z" fill="#f1eeef" stop-color="#000000"/><path d="m122.97 290.63 48.314-43.82 2.4968 25.967-44.319 29.213zm421.43-3e-3 -48.314-43.82-2.4968 25.967 44.319 29.213z" fill="#232323" stop-color="#000000" stroke="#000" stroke-linejoin="round" stroke-width="1.7878"/></g><path transform="matrix(1 0 -.087156 .99619 0 0)" d="m261.12 362.61c0 34.258-21.5 62.03-48.023 62.03-26.522 0-48.023-27.772-48.023-62.03 0-10.784 2.1306-20.926 5.9153-29.837 8.1189-19.154 23.934-32.193 42.107-32.193 24.935 0 45.432 24.548 47.789 55.892 0.15702 2.0622 0.23398 4.0886 0.23398 6.1382zm208.33-3e-3c5.9716 34.258 32.313 62.03 58.835 62.03 26.522 0 43.182-27.772 37.21-62.03-1.8798-10.784-5.7783-20.926-11.116-29.837-11.458-19.154-29.546-32.193-47.719-32.193-24.935 0-41.153 24.548-38.046 55.892 0.20244 2.0622 0.47871 4.0886 0.83598 6.1382z" fill="none" stop-color="#000000" stroke="#000" stroke-linejoin="round" stroke-width="1.7912"/></g><g fill-rule="evenodd" stroke="#000" stroke-linejoin="round" stroke-width="2"><path d="m352.09 471.2a17.798 9.5775 47.387 0 0 19.335 14.616 17.798 9.5775 47.387 0 0 3.9907-14.616 17.798 9.5775 47.387 0 0-19.335-14.616 17.798 9.5775 47.387 0 0-3.9907 14.616zm-37.507-3e-3a9.5775 17.798 42.613 0 1-19.335 14.616 9.5775 17.798 42.613 0 1-3.9907-14.616 9.5775 17.798 42.613 0 1 19.335-14.616 9.5775 17.798 42.613 0 1 3.9907 14.616z" fill="#232323" stop-color="#000000"/><g><path d="m541.71 529.46c-15.316 6.5411-24.525 28.73-94.252 39.688-37.681 5.9218-89.767 12.653-114.12 12.651-24.356-2e-3 -76.442-6.7327-114.12-12.655-69.727-10.958-78.936-33.147-94.252-39.688 53.126 11.9 167.45 30.614 208.37 30.616 40.925 1e-3 155.25-18.713 208.37-30.613z" fill="#c3793e" stop-color="#000000"/><path d="m541.71 529.46c-17.011 4.1767-36.695-13.097-70.953-13.097-10.752 0-50.639 16.619-137.42 16.618-86.783-1e-3 -126.67-16.621-137.42-16.621-34.258 0-53.941 17.273-70.953 13.097 53.126 11.9 167.45 30.614 208.37 30.616 40.925 1e-3 155.25-18.713 208.37-30.613z" fill="#702e12" stop-color="#000000"/><path d="m447.46 569.15-6.1832 23.111-18.435-1.3966-18.156 22.346-17.877-8.659-18.156 20.391-21.229-13.966-14.087 12.568-14.087-12.571-21.229 13.966-18.156-20.391-17.877 8.659-18.156-22.346-18.435 1.3966-6.1832-23.111c37.681 5.9218 89.767 12.653 114.12 12.655 24.356 1e-3 76.442-6.7294 114.12-12.651z" fill="#f7e17b" stop-color="#000000"/></g></g></svg>
