<?xml version="1.0" encoding="UTF-8"?>
<!-- Created with Inkscape (http://www.inkscape.org/) -->
<svg width="500pt" height="500pt" version="1.1" viewBox="0 0 666.67 666.67" xmlns="http://www.w3.org/2000/svg">
 <g stroke-linecap="round">
  <path d="m94.164 388.35c-21.515-0.19501-40.707 5.3575-53.799 19.148-36.924 38.895-5.708 109.9 33.078 141.52 16.223 16.278 25.02 92.4 36.955 104.34 11.499 11.499 60.74-47.287 60.74-47.287 31.344 14.642 59.628 24.645 73.629 24.645 25.446 0 41.399-127.88-15.059-184.15-29.629-29.534-88.211-57.78-135.54-58.209zm20.689 86.293c18.668 29.573 13.822 78.067-19.564 79.51-0.77586-25.877-0.30523-57.352 19.564-79.51z" fill="#c7aba9" stop-color="#000000" stroke="#010000" stroke-width="2"/>
  <path d="m170.81 603.24c14.976-11.889 20.682-28.372 26.519-47.686 0.11738 18.706 0.67376 36.827-8.2252 55.003" fill="none" stop-color="#000000" stroke="#ba534f" stroke-linejoin="round" stroke-width="20"/>
  <path d="m59.65 354.78s67.995-151.06 239.89-151.06c114.6 0 279.26 100.81 279.26 200.53 0 110.15-136.86 268.14-148.94 261.17-12.853-7.4209 60.975-144.57 38.298-214.89-29.363-91.063-123.25-137.23-197.87-137.23" fill="#e55eb7" stop-color="#000000" stroke="#000" stroke-width="2"/>
 </g>
 <path class="UnoptimicedTransforms" transform="translate(-.98864 12.759)" d="m166.71-12.759c0 165.58-164.72 264.69-164.72 361.77 0 12.938 10.015 80.55 27.75 85.302s5.7609-53.595 81.373-53.595c75.612 0 116.26 84.703 127.12 78.431s-15.359-34.638-15.359-74.51 24.875-78.431 55.556-78.431 196.79 40.55 388.24 40.55v-225.17c-29.794 7.9833-478.17 43.214-534.56 227.56 0-194.78 267.56-192.66 267.56-361.91z" fill="#b01f69"/>
 <path class="UnoptimicedTransforms" transform="translate(-.98864 12.759)" d="m166.71-12.759c0 165.58-164.72 264.69-164.72 361.77 0 12.938 10.015 80.55 27.75 85.302s5.7609-53.595 81.373-53.595c75.612 0 116.26 84.703 127.12 78.431s-15.359-34.638-15.359-74.51 24.875-78.431 55.556-78.431 196.79 40.55 388.24 40.55" fill="none" stop-color="#000000" stroke="#000" stroke-linecap="round" stroke-width="2"/>
 <path class="UnoptimicedTransforms" transform="translate(-.98864 12.759)" d="m399.66-12.759c0 169.25-267.56 167.13-267.56 361.91 56.39-184.34 504.77-219.57 534.56-227.56" fill="none" stop-color="#000000" stroke="#000" stroke-linecap="round" stroke-width="2"/>
</svg>
