<?xml version="1.0" encoding="UTF-8"?>
<!-- Created with Inkscape (http://www.inkscape.org/) -->
<svg width="666.67" height="666.67" version="1.1" viewBox="0 0 666.67 666.67" xmlns="http://www.w3.org/2000/svg">
 <g fill-rule="evenodd" stroke="#000" stroke-width="2.488">
  <g>
   <path d="m1.244 492.74 84.34-458.6c82.894-17.819 168.57-24.599 247.75-24.599s164.86 6.7802 247.75 24.599l84.34 458.6c-89.313-38.775-206.87-78.04-332.09-78.04-125.22 0-242.78 39.266-332.09 78.04z" fill="#d21800" stop-color="#000000" stroke-linejoin="round" style="paint-order:stroke fill markers"/>
   <path d="m149.28 599.31c-57.468-31.327-148.03-106.58-148.03-106.58 89.313-38.775 206.87-78.04 332.09-78.04 125.22 0 242.78 39.266 332.09 78.04 0 0-90.567 75.249-148.03 106.58-47.1 25.675-116.39 57.817-184.05 57.817-67.669 0-136.95-32.142-184.05-57.817z" fill="#4f4f5b" stop-color="#000000" stroke-linejoin="round" style="paint-order:stroke fill markers"/>
   <path d="m277.12 110.57c-2.1857-8.158-9.5779-13.831-18.024-13.832h-60.619c-10.306 0-18.66 8.3545-18.66 18.66 0 10.306 8.3545 18.66 18.66 18.66h46.301l30.19 113.03c-10.864 16.798-17.409 37.803-17.409 60.713 0 52.16 33.925 94.443 75.774 94.443 41.849 0 75.774-42.284 75.774-94.443 0-22.741-6.4489-43.605-17.339-60.34l30.119-113.4h46.303c10.306 0 18.66-8.3545 18.66-18.66 0-10.306-8.3545-18.66-18.66-18.66h-60.622c-8.4458 1e-3 -15.838 5.6744-18.024 13.832l-29.274 108.47c-8.5821-3.5648-17.562-5.6878-26.939-5.6878-9.1696 0-17.959 2.03-26.623 5.709z" color="#000000" fill="#ececec" stroke-linecap="square" style="paint-order:stroke fill markers"/>
  </g>
  <path d="m314.88 278.37a14.057 14.057 0 0 1-14.057 14.057 14.057 14.057 0 0 1-14.057-14.057 14.057 14.057 0 0 1 14.057-14.057 14.057 14.057 0 0 1 14.057 14.057zm36.899 0a14.057 14.057 0 0 0 14.057 14.057 14.057 14.057 0 0 0 14.057-14.057 14.057 14.057 0 0 0-14.057-14.057 14.057 14.057 0 0 0-14.057 14.057z" stop-color="#000000" stroke-linejoin="round" style="paint-order:stroke fill markers"/>
 </g>
</svg>
