<?xml version="1.0" encoding="UTF-8"?>
<!-- Created with Inkscape (http://www.inkscape.org/) -->
<svg width="500pt" height="500pt" version="1.1" viewBox="0 0 666.67 666.67" xmlns="http://www.w3.org/2000/svg">
 <g>
  <g stroke="#000" stroke-linecap="round" stroke-width="2">
   <path d="m439.53 264.63c73.499-67.616 129.58-144.69 143.71-244.53 54.462 90.468 82.381 174.97 82.381 300.15 0 208.99-186 263.23-259.28 288.65-8.7884-43.195 30.85-77.165 54.868-114.11m-234.08-230.16c-73.499-67.616-129.58-144.69-143.71-244.53-54.462 90.468-82.381 174.97-82.381 300.15 0 208.99 186 263.23 259.28 288.65 8.7884-43.195-30.85-77.165-54.868-114.11" fill="#bdbdbd" stop-color="#000000"/>
   <path d="m497.67 383.47c0 130.28-65.265 137.3-164.34 137.3s-164.34-7.0248-164.34-137.3c0-89.028 47.23-141.77 164.34-141.77s164.34 52.744 164.34 141.77z" fill="#fefefe" stop-color="#000000"/>
   <path d="m242.62 513.08c12.747-47.573 38.819-83.176 90.715-105.35 51.896 22.17 77.968 57.772 90.715 105.35-48.986 31.818-67.031 85.047-90.715 134.14-23.685-49.088-41.73-102.32-90.715-134.14z" fill="#e9cc18" stop-color="#000000"/>
   <path d="m391.02 388.58a40.871 40.871 0 0 0 40.871 40.871 40.871 40.871 0 0 0 40.871-40.871 40.871 40.871 0 0 0-40.871-40.871 40.871 40.871 0 0 0-40.871 40.871zm-115.38 0a40.871 40.871 0 0 1-40.871 40.871 40.871 40.871 0 0 1-40.871-40.871 40.871 40.871 0 0 1 40.871-40.871 40.871 40.871 0 0 1 40.871 40.871z" stop-color="#000000"/>
  </g>
  <path d="m402.52 388.58a29.376 29.376 0 0 0 29.376 29.376 29.376 29.376 0 0 0 29.376-29.376 29.376 29.376 0 0 0-29.376-29.376 29.376 29.376 0 0 0-29.376 29.376zm-138.37 0a29.376 29.376 0 0 1-29.376 29.376 29.376 29.376 0 0 1-29.376-29.376 29.376 29.376 0 0 1 29.376-29.376 29.376 29.376 0 0 1 29.376 29.376z" fill="#7a0000" stop-color="#000000"/>
  <path d="m414.65 388.58a17.243 17.243 0 0 0 17.243 17.243 17.243 17.243 0 0 0 17.243-17.243 17.243 17.243 0 0 0-17.243-17.243 17.243 17.243 0 0 0-17.243 17.243zm-162.63 0a17.243 17.243 0 0 1-17.243 17.243 17.243 17.243 0 0 1-17.243-17.243 17.243 17.243 0 0 1 17.243-17.243 17.243 17.243 0 0 1 17.243 17.243z" fill="#bc5324" stop-color="#000000"/>
  <path d="m423.59 388.58a8.302 8.302 0 0 0 8.302 8.302 8.302 8.302 0 0 0 8.302-8.302 8.302 8.302 0 0 0-8.302-8.302 8.302 8.302 0 0 0-8.302 8.302zm-180.51 0a8.302 8.302 0 0 1-8.302 8.302 8.302 8.302 0 0 1-8.302-8.302 8.302 8.302 0 0 1 8.302-8.302 8.302 8.302 0 0 1 8.302 8.302z" stop-color="#000000"/>
 </g>
</svg>
