<?xml version="1.0" encoding="UTF-8"?>
<!-- Created with Inkscape (http://www.inkscape.org/) -->
<svg width="500pt" height="500pt" version="1.1" viewBox="0 0 666.67 666.67" xml:space="preserve" xmlns="http://www.w3.org/2000/svg" xmlns:xlink="http://www.w3.org/1999/xlink"><defs><linearGradient id="linearGradient19204" x1="195.52" x2="264.99" y1="54.162" y2="395.21" gradientTransform="matrix(-1 0 0 1 666.67 3.65e-6)" gradientUnits="userSpaceOnUse"><stop stop-color="#f6a5be" offset="0"/><stop stop-color="#ffecff" offset=".62611"/></linearGradient></defs><g fill-rule="evenodd" stroke-linecap="square"><g stroke="#000" stroke-width="2"><path d="m307.22 383.07s-4.7795-137.31-14.077-205.25c-15.577-113.84-58.647-186.13-110.48-175-51.837 11.128-49.617 122.72-26.21 210.08 18.847 70.336 67.608 207.75 67.608 207.75-41.519 34.879-66.868 89.355-66.868 149.6 1.6446 32.387 4.543 61.264 11.38 96.408 10.072-84.806 22.098-157.55 164.76-157.55s154.69 72.744 164.76 157.55c6.837-35.144 9.7354-64.021 11.38-96.408 0-60.248-25.349-114.72-66.868-149.6 0 0 48.761-137.42 67.608-207.75 23.408-87.358 25.627-198.95-26.21-210.08-51.837-11.128-94.907 61.164-110.48 175-9.297 67.942-14.077 205.25-14.077 205.25-17.866-2.5019-35.512-2.4694-52.223 0z" fill="#ffdd4b" stop-color="#000000"/><path transform="matrix(-.86716 -.49802 -.49802 .86716 0 0)" d="m-544.08 186.85a30.006 18.313 0 0 1-30.006 18.313 30.006 18.313 0 0 1-30.006-18.313 30.006 18.313 0 0 1 30.006-18.313 30.006 18.313 0 0 1 30.006 18.313zm78.77 45.239a30.006 18.313 59.739 0 0-0.69577 35.146 30.006 18.313 59.739 0 0 30.939 16.689 30.006 18.313 59.739 0 0 0.69579-35.146 30.006 18.313 59.739 0 0-30.939-16.689z" stop-color="#000000"/><path d="m471.15 54.162c61.784 16.555-17.359 274.46-37.892 359.18-18.54-13.509-39.928-23.335-63.36-28.362 8.7454-79.716 31.015-341.25 101.25-330.82zm-275.63-4e-6c-61.784 16.555 17.359 274.46 37.892 359.18 18.54-13.509 39.928-23.335 63.36-28.362-8.7454-79.716-31.015-341.25-101.25-330.82z" fill="url(#linearGradient19204)" stop-color="#000000"/></g><path transform="matrix(-.86995 -.49314 -.50293 .86433 0 0)" d="m-553.88 187.91a12.35 7.7377 0 0 1-12.35 7.7377 12.35 7.7377 0 0 1-12.35-7.7377 12.35 7.7377 0 0 1 12.35-7.7377 12.35 7.7377 0 0 1 12.35 7.7377zm93.376 53.275a12.29 7.7757 59.355 0 0-0.50386 14.496 12.29 7.7757 59.355 0 0 12.951 6.6976 12.29 7.7757 59.355 0 0 0.50386-14.496 12.29 7.7757 59.355 0 0-12.951-6.6977z" fill="#fff" stop-color="#000000" stroke-width="2.0001"/></g></svg>
