<?xml version="1.0" encoding="UTF-8"?>
<!-- Created with Inkscape (http://www.inkscape.org/) -->
<svg width="666.67" height="666.67" version="1.1" viewBox="0 0 666.67 666.67" xmlns="http://www.w3.org/2000/svg">
 <g fill-rule="evenodd">
  <g transform="translate(1.5176e-6 .50029)" stroke="#000" stroke-linecap="round" stroke-linejoin="round" stroke-width="2">
   <path d="m545.46 451.61-157.05 76.871a61.198 61.198 0 0 1 6.1191 26.555 61.198 61.198 0 0 1-61.197 61.197 61.198 61.198 0 0 1-61.199-61.197 61.198 61.198 0 0 1 6.0215-26.441l-156.48-76.812a212.6 196.15 0 0 0-0.94141 12.156 212.6 196.15 0 0 0 212.6 196.15 212.6 196.15 0 0 0 212.6-196.15 212.6 196.15 0 0 0-0.47266-12.328z" fill="#b57110" stop-color="#000000"/>
   <path d="m333.33 267.78a212.6 196.15 0 0 0-211.66 184l156.48 76.812a61.198 61.198 0 0 1 55.178-34.758 61.198 61.198 0 0 1 55.078 34.645l157.05-76.871a212.6 196.15 0 0 0-212.13-183.83z" stop-color="#000000"/>
   <path d="m333.33 444.39a110.64 110.64 0 0 0-110.64 110.64 110.64 110.64 0 0 0 110.64 110.63 110.64 110.64 0 0 0 110.63-110.63 110.64 110.64 0 0 0-110.63-110.64zm0 49.438a61.198 61.198 0 0 1 61.197 61.199 61.198 61.198 0 0 1-61.197 61.197 61.198 61.198 0 0 1-61.199-61.197 61.198 61.198 0 0 1 61.199-61.199z" fill="#ffe00b" stop-color="#000000"/>
  </g>
  <path d="m488.69 442.82c-15.423-26.714-47.595-71.341-69.288-77.154-4.0777 15.218-20.251 70.284 7.1161 90.637s55.508 11.387 62.172-13.483zm-310.79 0c15.423-26.714 47.595-71.341 69.288-77.154 4.0777 15.218 20.251 70.284-7.1161 90.637s-55.508 11.387-62.172-13.483z" fill="#f05804" stop-color="#000000"/>
  <path d="m478.06 425.73c-11.404-17.214-26.234-36.499-40.053-48.616-5.9656 22.264-4.9534 47.389 0.99184 57.686s34.036 9.6863 39.062-9.07zm-289.53 0c11.404-17.214 26.234-36.499 40.053-48.616 5.9656 22.264 4.9534 47.389-0.99184 57.686s-34.036 9.6863-39.062-9.07z" fill="#fff20d" stop-color="#000000" style="paint-order:normal"/>
  <path d="m214.03 171.92c-44.765-11.995-137.77 18.683-137.77 18.683s65.207 73.07 109.97 85.065c44.765 11.995 137.77-18.683 137.77-18.683s-65.207-73.07-109.97-85.065zm266.41 103.75c44.765-11.995 109.97-85.065 109.97-85.065s-93.006-30.677-137.77-18.683-109.97 85.065-109.97 85.065 93.006 30.677 137.77 18.683zm-93.4-146.92c0-46.344-53.704-128.24-53.704-128.24s-53.704 81.897-53.704 128.24c0 46.344 53.704 128.24 53.704 128.24s53.704-81.897 53.704-128.24z" fill="#79c61d" stop-color="#000000" stroke="#000" stroke-linecap="round" stroke-linejoin="round" stroke-width="2"/>
 </g>
</svg>
