<?xml version="1.0" encoding="UTF-8"?>
<!-- Created with Inkscape (http://www.inkscape.org/) -->
<svg width="666.67" height="666.67" version="1.1" viewBox="0 0 666.67 666.67" xmlns="http://www.w3.org/2000/svg">
 <g fill-rule="evenodd">
  <g stroke="#000">
   <ellipse cx="333.33" cy="333.33" rx="262.56" ry="332.25" fill="#43352c" stop-color="#000000" stroke-width="2.1589"/>
   <path d="m333.33 645.33c-94.333 0-173.61-82.685-196.23-194.96 0 0 76.472 68.554 196.23 68.554 119.76 0 196.28-68.804 196.28-68.804-22.432 112.28-101.8 195.21-196.28 195.21z" fill="#cda90b" stop-color="#000000" stroke-width="2"/>
   <path d="m535.97 385.41c0-143.55-90.722-259.92-202.63-259.92-111.91 0-202.63 116.37-202.63 259.92 0 22.547 2.2381 44.423 6.4044 64.956 0 0 76.472 68.554 196.23 68.554 119.76 0 196.28-68.804 196.28-68.804 4.1517-20.632 6.3542-42.339 6.3542-64.706z" stop-color="#000000" stroke-width="2"/>
  </g>
  <path d="m472.29 277.47a44.74 44.74 0 0 1-44.74 44.74 44.74 44.74 0 0 1-44.74-44.74 44.74 44.74 0 0 1 44.74-44.74 44.74 44.74 0 0 1 44.74 44.74zm-188.43 0a44.74 44.74 0 0 1-44.74 44.74 44.74 44.74 0 0 1-44.74-44.74 44.74 44.74 0 0 1 44.74-44.74 44.74 44.74 0 0 1 44.74 44.74z" fill="#386c45" stop-color="#000000"/>
  <path d="m452.4 277.47a24.856 24.856 0 0 1-24.856 24.856 24.856 24.856 0 0 1-24.856-24.856 24.856 24.856 0 0 1 24.856-24.856 24.856 24.856 0 0 1 24.856 24.856zm-188.43 0a24.856 24.856 0 0 1-24.856 24.856 24.856 24.856 0 0 1-24.856-24.856 24.856 24.856 0 0 1 24.856-24.856 24.856 24.856 0 0 1 24.856 24.856z" fill="#d7cbcf" stop-color="#000000"/>
 </g>
</svg>
