<?xml version="1.0" encoding="UTF-8"?>
<svg width="666.67" height="666.67" version="1.1" viewBox="0 0 666.67 666.67" xmlns="http://www.w3.org/2000/svg">
 <g stroke="#000" stroke-linejoin="round">
  <path d="m505.97 112.11c-123.03 1.0582-250.88-8.7304-359.86 23.944-8.3184 86.332-65.712 417.38 69.014 483.1-1.9114-25.953-2.9849-52.026 4.1975-79.278 18.058 11.381 36.1 22.875 55.446 25.248 2.3846-20.162 6.1128-39.877 16.337-57.426 20.44 32.067 42.113 63.175 74.257 86.139 4.1407-19.53 11.394-36.392 24.752-48.02 11.454 22.969 26.835 43.695 47.525 61.386-9.7198-39.866 2.6321-82.884 10.396-125.25 21.083 48.606 53.537 79.717 91.738 101.99-40.806-93.277-49.307-256.55-33.803-471.83z" fill="#714c31" stop-color="#000000" stroke-linecap="round" stroke-width="2"/>
  <path transform="matrix(1.1894 0 0 1.1894 -416.61 431.32)" d="m664.54-90.789a23.329 17.639 0 0 0 23.329 17.639 23.329 17.639 0 0 0 23.329-17.639 23.329 17.639 0 0 0-23.329-17.639 23.329 17.639 0 0 0-23.329 17.639zm-103.08 0a23.329 17.639 0 0 1-23.329 17.639 23.329 17.639 0 0 1-23.329-17.639 23.329 17.639 0 0 1 23.329-17.639 23.329 17.639 0 0 1 23.329 17.639zm-17.781-56.757c12.014-16.655 25.873-13.42 37.98-21.479 11.008-7.3284 6.1364-24.324 31.342-24.324s20.334 16.996 31.342 24.324c12.107 8.0598 25.966 4.8244 37.98 21.479-32.129-4.7482-50.453 31.721-69.322 31.721s-37.193-36.469-69.322-31.721zm11.522 101.42c-18.829 4.9781-41.193-3.5117-42.105-23.471 23.802 5.5247 62.516 13.597 61.593-23.358 0.92246-36.955-37.791-28.883-61.593-23.358 0.91266-19.959 23.276-28.449 42.105-23.471 22.936 6.0638 31.273 30.583 57.8 30.583s34.864-24.519 57.8-30.583c18.829-4.9781 41.193 3.5117 42.105 23.471-23.802-5.5247-62.516-13.597-61.593 23.358-0.92246 36.955 37.791 28.883 61.593 23.358-0.91266 19.959-23.276 28.449-42.105 23.471-22.936-6.0638-31.273-30.583-57.8-30.583s-34.864 24.519-57.8 30.583zm39.26 50.356c-7.7679-4.335-12.569-14.329-19.915-19.346-11.067-7.5585-21.93-9.8784-35.989-17.923 14.916-2.7642 32.163-5.1614 45.661-13.514 6.5046-4.0248 8.9009-13.18 15.647-16.785 7.2863-2.2579 19.645-3.2418 26.268 0 6.7463 3.605 9.1426 12.76 15.647 16.785 13.498 8.3521 30.745 10.749 45.661 13.514-14.059 8.0448-24.922 10.365-35.989 17.923-7.3458 5.0171-12.147 15.011-19.915 19.346-7.9972 3.6243-30.217 3.5133-37.079 0z" fill="#efc82e" stop-color="#000000" stroke-linecap="square" stroke-width="1.6815"/>
  <path d="m340.54 0c22.762 28.633 34.935 57.689 34.224 86.459-0.80075 32.399-16.556 63.174-42.164 95.535-5.1411 6.4956-14.574 7.5939-21.07 2.4531-6.4962-5.1405-7.5954-14.574-2.4551-21.07 23.559-29.771 35.13-54.611 35.699-77.658 0.44829-18.138-5.5718-36.647-21.024-58.217-15.78 21.144-21.922 39.837-21.47 58.152 0.21307 8.6208 1.9432 17.735 5.2865 27.022l-30.932 1.5728c-2.6229-9.2005-4.1127-18.459-4.3449-27.854-0.71107-28.77 11.136-57.761 33.897-86.394" color="#000000" fill="#8a8a8a" stroke-linecap="round" stroke-width="2"/>
 </g>
</svg>
