<?xml version="1.0" encoding="UTF-8"?>
<!-- Created with Inkscape (http://www.inkscape.org/) -->
<svg width="666.67" height="666.67" version="1.1" viewBox="0 0 666.67 666.67" xml:space="preserve" xmlns="http://www.w3.org/2000/svg"><g><g fill-rule="evenodd"><path d="m73.666 382.48c1.6094 14.129 4.1652 28.334 7.2579 42.583 5.8278 25.32 25.433 78.037 38.649 100.19-13.97 0.30197-33.318-3.5728-47.594-5.5504-17.425-2.4213-49.443-17.593-49.443-17.593l50.704 135.21s43.183-31.198 71.391-32.042c25.861-0.7743 57.224 15.837 64.054 20.512 37.026 25.378 79.507 39.794 124.65 39.794 101.09 0 188.83-72.294 232.67-178.22l3.0624-7.7227c8.5121-0.27836 14.652 2.1096 22.488 5.5638 15.166 6.6854 30.282 39.437 30.282 39.437l44.836-101.41s-13.669 4.1094-18.075 0c-7.3996-6.9013 4.5508-22.667-2.1127-30.282-11.971-13.68-54.24-4.4432-54.24-4.4432l0.83753-6.5155c1.8592-15.872 2.814-32.128 2.814-48.666 0-42.347-6.2605-82.844-17.7-120.05l-2.7683-8.3425s33.442-18.336 44.409-31.73c15.493-18.921 28.761-56.31 28.761-56.31l-81.69-116.9-71.288 72.254-6.4708-6.3603c-43.627-40.76-97.498-64.814-155.81-64.814-118.93 0-223.88 101.65-253.08 244.28-8.2316 3.1918-9.7638 7.0885-18.282 8.8679-21.085 4.4045-61.972-18.31-61.972-18.31v97.183s17.841-12.457 27.465-10.563c19.986 3.933 34.326 25.179 44.47 41.911" fill="#d4cac0" stop-color="#000000" stroke="#000" stroke-linecap="round" stroke-width="2"/><ellipse cx="333.33" cy="333.33" rx="262.56" ry="332.25" fill="#6f6b67" stop-color="#000000"/><path d="m333.33 1.0801c-25.131 0.14892-50.115 4.863-74.188 13.998 38.036-3.6543 74.826 0.10759 111.52 6.4265 34.551 5.9496 69.971 17.745 100.98 29.419-41.54-32.58-89.441-49.843-138.31-49.844zm-110.05 31.268c-26.165 15.259-50.168 35.864-71.045 60.988 32.082 4.4392 115.54 16.398 169.09 28.074 54.186-4.3027 107.87-20.394 152.64-53.371-42.637-19.353-82.836-28.082-125.9-34.09-41.2-5.7487-82.889-3.9078-124.79-1.6014zm272.39 39.848c-42.566 33.213-86.81 49.896-136.86 58.636 72.429 20.333 181.38 60.756 216.67 74.051 23.631-68.67-18.023-132.52-79.809-132.69zm-353.99 34.865c-25.623 34.858-45.027 76.277-56.898 121.45 129.03-42.389 424.16 53.195 486.55 145.87 10.286 0.0275 17.901-0.0362 22.447-0.0625 0.29891-4.4111 1.0403-8.7333 1.1997-13.156-6.2843-7.3246-26.711-30.589-46.946-53.199-46.398-50.418-97.54-90.245-155.67-120.85-77.618-40.867-165.65-68.368-250.68-80.056zm170.99 27.842c67.19 28.252 107.47 40.246 153.68 73.16 50.028 35.632 82.751 65.942 129.24 131.34 0.59816-39.221-4.3823-82.942-14.635-116.34-88.804-29.7-177.59-71.385-268.28-88.156zm-232.74 111.44c-22.022 28.034-13.971 107.93-7.9936 118.1 67.541-76.158 152.73-109.29 246.51-104.32-74.638-15.751-166.95-38.455-238.52-13.786zm228.49 29.757c-31.422 1.3199-63.197 6.1254-89.43 13.863 16.75 38.78 40.016 68.936 75.268 96.477 48.985-7.3442 102.21-9.4154 146.26-10.611zm195.25 60.422-55.812 26.051 16.842 12.717c31.638-0.61756 60.186-0.8301 83.312-0.87109-14.28-13.375-29.603-26.724-44.342-37.896zm-267.87 15.859c-50.261 30.218-114.56 36.312-162.17 29.7 2.0642 16.969 4.0741 27.998 7.3041 42.719 4.5581-0.95451 107.78-22.506 193.24-35.403-13.102-11.607-28.012-23.801-38.371-37.016zm102.81 43.717c-82.072 7.9133-242.78 40.978-253.52 43.195 6.6772 25.131 15.708 49.161 26.898 71.576 76.746-13.394 156.4-31.155 237.42-36.382 77.265-3.7942 148.33-1.0366 224.72 5.3162l19.651-91.047c-83.354 2.8677-171.78-0.21638-255.17 7.3414zm94.922 91.415 107.48 48.989c8.0532-13.314 15.299-27.38 21.674-42.078-40.824 0.48189-84.88-3.0779-129.16-6.9111zm-22.517 3.279c-54.792-2.644-107.72 4.5731-165.14 13.579 100.07 63.447 168.44 81.951 238.49 100.01 17.714-15.848 33.807-34.412 47.912-55.27zm-289.97 35.305-5.7664-0.87261c16.685 32.101 39.489 63.503 75.052 90.962 5.4738 4.2264 12.685 5.1263 18.314 8.9874 2.2232-2.6987 8.5824-10.36 16.342-18.615 9.2543-9.8456 20.531-21.065 31.006-27.379 10.097-6.0856 31.158-13.98 43.839-17.507-42.103-27.187-53.736-32.269-82.514-48.884-26.417 0-60.534 7.7705-96.273 13.308zm198.76 46.505c-31.687 9.9737-65.868 25.378-86.007 47.468 30.353 11.223 61.672 21.173 93.825 23.226 42.119 2.6887 81.49-9.1158 125.77-14.549 2.2007-1.7124 14.39-10.381 16.55-12.175-53.744-11.977-103.28-25.431-150.14-43.97zm-96.181 57.953c-0.73459 0.86238-1.1682 1.5429-2.0156 2.707 34.912 21.057 73.068 32.094 111.74 32.322 32.335-0.14626 64.371-7.8497 94.494-22.723-32.798 5.1956-67.031 15.009-100.89 13.111-35.415-1.9847-68.264-13.156-103.33-25.418z" fill="#d4cac0" stop-color="#000000"/></g><path d="m594.03 193.76-18.61 11.176c13.027 39.421 20.468 82.991 20.468 128.39 0 18.899-1.2562 37.144-3.6516 55.181l8.3709-1.4699m-26.478 92.764c-1.8689-0.12207-3.7831-0.26229-5.0705-0.16097-42.83 109.88-132.36 185.94-235.73 185.94-45.166 0-95.642-19.07-132.76-44.489-3.4498-2.3432-19.97-9.1935-26.158-10.914m324.71-541.49-3.5142 3.5618c-44.696-44.615-100.93-71.174-162.28-71.174-121.04 0-222.7 103.3-253.08 244.28-4.5276 1.8227-6.8284 3.5208-9.4624 5.2376m41.461 274.5c2.4407 0.0837 4.884 0.25098 7.3193 0.16508-16.92-30.151-30.391-63.973-38.641-100.41-4.1502-19.451-7.6175-39.35-9.0942-60.557-1.6038-2.6628-2.972-4.811-4.3389-6.9565" fill="none" stop-color="#000000" stroke="#000" stroke-linecap="round" stroke-width="2"/><g fill-rule="evenodd"><path d="m124.26 341.13c-11.99 8.7623-24.525 18.395-35.645 27.348 4.0554 0.36851 8.486 0.74355 13.465 1.0742 15.741 1.0455 34.774 1.4413 45.916-0.43164 14.206-2.3879 36.42-10.63 54.549-18.281 10.841-4.5758 18.981-8.3158 24.832-11.066-5.1509-8.6129-10.125-18.364-14.395-27.174-3.7355-7.7078-6.5336-13.887-8.5469-18.43-2.182 0.72306-4.3031 1.4585-6.2812 2.2226-6.1539 2.3774-13.083 5.7734-20.4 9.8066 4e-3 7e-3 8e-3 0.0128 0.0117 0.0195l-53.506 34.912z" fill="#fff" stop-color="#000000"/><path d="m124.26 341.13c14.476 17.221 33.031 15.501 45.204 6.0307 11.15-8.6744 17.224-24.136 8.3017-40.943-19.083 11.085-37.847 23.522-53.506 34.912z" stop-color="#000000"/><path d="m361.66 272.29c-2.9769 0.12308-14.327 0.68011-30.875 1.9023l103.51 78.15 55.273-25.797c-12.798-7.7873-46.161-23.398-46.161-23.398-21.743-6.5641-44.132-13.008-59.22-23.448 0 0-16.337-5.5612-22.531-7.4101z" fill="#fff" stop-color="#000000"/><path d="m384.11 279.7c-4.5743 17.263 4.5143 33.174 18.16 38.746 14.274 5.8286 31.571 1.5536 41.174-15.273 0 0-21.778-9.4168-32.818-13.751-8.7628-3.4402-26.516-9.7215-26.516-9.7215z" stop-color="#000000"/></g></g></svg>
