<?xml version="1.0" encoding="UTF-8"?>
<!-- Created with Inkscape (http://www.inkscape.org/) -->
<svg width="500pt" height="500pt" version="1.1" viewBox="0 0 666.67 666.67" xmlns="http://www.w3.org/2000/svg" xmlns:xlink="http://www.w3.org/1999/xlink">
 <defs>
  <radialGradient id="radialGradient8729" cx="228.54" cy="342.37" r="56.143" gradientUnits="userSpaceOnUse">
   <stop stop-color="#e5d32b" offset="0"/>
   <stop stop-color="#d63509" offset="1"/>
  </radialGradient>
 </defs>
 <g transform="matrix(.9944 0 0 .9944 1.8661 3.5526)" fill-rule="evenodd" stroke="#000">
  <g transform="translate(0 -6.3404)" stroke-width="2">
   <path d="m396.68 535.47c24.966 42.64 54.124 70.363 81.37 96.584-3.1926-41.079-3.3594-82.161-28.298-139.09m-179.76 42.502c-24.966 42.64-54.124 70.363-81.37 96.584 3.1926-41.079 3.3594-82.161 28.298-139.09" fill="#2193d2" stop-color="#000000"/>
   <path d="m449.75 492.96c37.714 27.075 79.916 50.479 122.69 73.411-18.869-55.269-46.243-85.495-73.284-116.7m-282.25 43.293c-37.714 27.075-79.916 50.479-122.69 73.411 18.869-55.269 46.243-85.495 73.284-116.7" fill="#59e71a" stop-color="#000000"/>
   <path d="m499.16 449.67c43.284 16.907 89.194 29.388 132.48 37.895-23.43-37.373-54.75-63.786-86.417-89.718m-377.72 51.822c-43.284 16.907-89.194 29.388-132.48 37.895 23.43-37.373 54.75-63.786 86.417-89.718" fill="#e91e1f" stop-color="#000000"/>
   <path d="m545.22 397.85c35.321 3.7646 70.626 7.5368 121.44 3.553-22.861-30.918-55.433-53.071-97.442-66.709m-447.78 63.156c-35.321 3.7646-70.626 7.5368-121.44 3.553 22.861-30.918 55.433-53.071 97.442-66.709" fill="#e5d32b" stop-color="#000000"/>
  </g>
  <path d="m434.6 499.29 98.918-128.09-2.6285-131.09-396.97-5.6759-3.9903 150.27 102.15 114.59c34.902 28.845 82.086 64.305 101.26 64.305 19.176 0 66.359-35.459 101.26-64.305z" fill="#bd0401" stop-color="#000000" stroke-linejoin="bevel" stroke-width="2.0113"/>
  <g stroke-linecap="square" stroke-width="2">
   <path d="m532.18 409.2c5.5742-14.181 17.598-56.658 1.3343-38.002-9.9921 11.462-29.987 38.813-53.958 49.522-40.529 18.107-87.176 5.5645-87.553 24.359-0.2759 13.753 21.578 36.53 53.511 44.943 12.546-10.639 23.29-20.055 27.705-24.271 10.128-9.6737 36.327-28.714 58.961-56.551zm-311.03 80.822c2.6448-1.3514 59.51-32.662 61.892-34.019-4.2825-38.524-101.53-11.741-131.95-65.673-28.213-39.613-20.619-3.8244-17.658 14.69 0.27086 1.3995 0.62372 2.7945 1.0449 4.1777 22.634 27.838 48.834 46.879 58.963 56.553 4.4151 4.2169 15.159 13.633 27.705 24.271z" fill="#48a806" stop-color="#000000"/>
   <path d="m217.79 164.21c-55.394 0-93.986 31.998-111.21 82.299l20.539 7.6055c45.149-58.476 112.2-59.362 160.78-18.137-5.2187-17.485-8.706-38.348-0.79297-55.393-19.676-8.8093-43.884-16.375-69.324-16.375zm161.76 16.375c7.2635 17.524 4.9413 38.014-0.79297 55.393 68.273-33.413 128.31-43.952 160.79 18.137l20.539-7.6055c-17.219-50.3-55.813-82.299-111.21-82.299-25.44 0-49.648 7.5656-69.324 16.375z" fill="#d63509" stop-color="#000000"/>
   <path d="m287.12 180.59c-7.2623 17.524-4.9411 38.015 0.79297 55.393-50.559-52.304-139.01-25.716-160.78 18.137l-20.539-7.6055c-6.6567 19.446-10.127 41.622-10.127 65.75-2e-6 39.42 17.559 71.769 38.025 96.941-2.9927-10.166-1.838-22.567 1.4629-32.047 4.7443 6.6067 9.4198 13.072 14.141 18.994 9.4708 11.783 21.688 23.107 33.84 30.389 12.696 6.7048 28.419 11.07 41.582 12.008 11.664 1.7875 33.475-2.2568 41.811 1.6816 2.5519 4.2748-0.892 11.249-3.0645 14.977-9.8823 15.498-28.042 27.047-43.104 34.822 3.7139 3.149 6.8157 5.8757 10.92 9.2676 14.832-4.9814 26.241-11.193 37.002-21.188 18.916-15.078 42.84-64.629-2.0644-57.902-1.7468 0.26457-3.5905 0.61901-5.5332 1.0684-1.9426 0.44936-3.9834 0.99419-6.127 1.6387-22.948 7.0455-48.215 4.3211-69.033-7.0703-2.5486-1.4007-5.0218-2.9215-7.4141-4.5566-9.7264-6.6808-17.953-15.121-24.293-24.578-1.6162-2.4203-3.1194-4.9235-4.5039-7.502-7.2205-13.523-10.841-28.457-10.855-43.369 0-2.0236 0.0786-4.0667 0.2168-6.127 1.2387-17.643 6.051-34.392 5.1914-51.703-0.0974-1.9254-0.25232-3.8251-0.4336-5.6797-0.0458-7.6026-3.7104-16.473-0.0333-23.49 0.49812-0.87315 1.2532-1.4363 2.0098-1.9316 8.4464-2.2914 17.81 2.1527 25.934 3.7285 2.0337 0.39199 4.1046 0.72415 6.1875 0.94336 18.755 1.6494 37.09-4.9902 55.438-5.0215 1.712 0 3.3993 0.0446 5.0625 0.13086 32.12 1.4536 61.426 21.451 74.076 50.814 0.91431 2.1323 1.7169 4.2658 2.4062 6.3867 7.5897 21.157-0.76473 43.358-0.80273 64.654 8e-3 3.226 1.4379 6.4918 3.4766 8.623 7.4402 6.6729 20.086 7.1335 28.301 1.7324 2.637-1.977 4.6351-4.2011 5.4629-7.1465 0.67089-22.942-7.6102-45.482-0.3789-67.863 0.68937-2.1209 1.4919-4.2544 2.4062-6.3867 12.073-28.214 39.213-47.27 69.158-50.432 1.6141-0.16882 3.2528-0.29658 4.916-0.38281 18.432-0.66377 36.274 4.6815 54.242 5.1641 12.532 1.0099 25.069-5.6517 35.314-5.6855 2.0585 0.0565 4.0091 1.2361 5.0742 2.6719 2.0852 4.0276 1.5173 8.8792 1.1113 13.045-0.58812 5.7533-1.3028 10.802-1.5781 16.125-0.97615 19.608 5.3802 38.71 5.4082 57.83-8e-3 3.2007-0.16847 6.3402-0.46289 9.3027-2.2091 23.566-14.823 45.968-32.264 60.908-2.2208 1.8543-4.5316 3.6032-6.9238 5.2383-28.853 19.382-51.321 17.263-82.576 9.9883-1.9427-0.44935-3.7864-0.80379-5.5332-1.0684-20.995-3.515-30.712 8.1034-23.521 27.512 0.46037 1.237 0.9807 2.4931 1.5606 3.7598 0.57984 1.2667 1.2179 2.544 1.9121 3.8301 6.4486 11.69 15.611 21.709 26.094 29.584 1.426 1.0689 2.8883 2.1024 4.3828 3.0976 8.3521 5.1173 15.976 8.9988 24.512 11.307 4.1036-3.3915 7.2046-6.1188 10.918-9.2676-16.71-9.1802-33.511-19.62-43.102-34.822-2.0349-3.7072-3.6031-6.8514-4.1133-10.645-0.10434-1.6977 0.14251-3.0757 1.0469-4.332 0.86752-0.77866 2.0048-1.0223 3.0039-1.2734 19.307-2.258 35.917 1.2312 52.486-1.9102 14.775-4.9235 26.608-8.679 37.68-16.865 9.5895-7.5232 17.089-15.312 24.064-24.029 5.0619-6.3661 9.7436-12.869 14.139-18.994 3.4447 11.039 4.6601 21.477 1.4609 32.049 20.468-25.173 38.029-57.522 38.029-96.943 0-24.128-3.47-46.304-10.127-65.75l-20.539 7.6055c-27.407-64.684-121.2-51.501-160.79-18.137 5.22-17.486 8.7063-38.348 0.79297-55.393-27.601 12.358-46.217 27.184-46.217 27.184s-18.617-14.826-46.219-27.184z" fill="#1a166b" stop-color="#000000"/>
  </g>
  <g transform="translate(0 -6.3404)" stroke-width="2">
   <path transform="matrix(-1 0 0 1 666.67 0)" d="m296.04 383.62c0-18.906 4.6211-32.262 4.6211-48.951 1e-5 -15.809-5.9138-31.366-26.843-49.927-21.318-18.904-56.071-16.232-77.343-10.533-15.992 4.285-28.084-10.631-35.085-3.6294-7.0019 7.0019 4.7861 18.809 0.50107 34.801-5.6998 21.272-8.6563 60.718 10.248 82.036 18.56 20.93 36.677 25.137 52.486 25.137 16.689 0 31.894-5.3321 50.8-5.3321 12.561 0 24.969 15.743 30.244 10.467 6.4842-6.4842-9.6289-21.508-9.6289-34.069zm74.586 0c0-18.906-4.6211-32.262-4.6211-48.951-1e-5 -15.809 5.9138-31.366 26.843-49.927 21.318-18.904 56.071-16.232 77.343-10.533 15.992 4.285 28.084-10.631 35.085-3.6294 7.0019 7.0019-4.7861 18.809-0.50107 34.801 5.6998 21.272 8.6563 60.718-10.248 82.036-18.56 20.93-36.677 25.137-52.486 25.137-16.689 0-31.894-5.3321-50.8-5.3321-12.561 0-24.969 15.743-30.244 10.467-6.4842-6.4842 9.6289-21.508 9.6289-34.069z" stop-color="#000000"/>
   <circle cx="228.54" cy="342.37" r="55.143" fill="url(#radialGradient8729)" stop-color="#000000"/>
   <circle transform="matrix(-1 0 0 1 666.67 0)" cx="228.54" cy="342.37" r="55.143" fill="url(#radialGradient8729)" stop-color="#000000"/>
   <path transform="matrix(-1 0 0 1 666.67 0)" d="m245.57 342.37a17.037 17.037 0 0 1-17.037 17.037 17.037 17.037 0 0 1-17.037-17.037 17.037 17.037 0 0 1 17.037-17.037 17.037 17.037 0 0 1 17.037 17.037zm175.52 0a17.037 17.037 0 0 0 17.037 17.037 17.037 17.037 0 0 0 17.037-17.037 17.037 17.037 0 0 0-17.037-17.037 17.037 17.037 0 0 0-17.037 17.037z" fill="#62e229" stop-color="#000000"/>
   <path transform="matrix(-1 0 0 1 666.67 0)" d="m235.64 342.37a7.1065 7.1065 0 0 1-7.1065 7.1065 7.1065 7.1065 0 0 1-7.1065-7.1065 7.1065 7.1065 0 0 1 7.1065-7.1064 7.1065 7.1065 0 0 1 7.1065 7.1064zm195.38 0a7.1065 7.1065 0 0 0 7.1065 7.1065 7.1065 7.1065 0 0 0 7.1065-7.1065 7.1065 7.1065 0 0 0-7.1065-7.1064 7.1065 7.1065 0 0 0-7.1065 7.1064z" stop-color="#000000"/>
  </g>
  <path d="m471.92 192.96-2.4518-157.62-49.912 148.69c2.7888 17.182 37.948 23.806 52.364 8.9317zm-277.17 0 2.4518-157.62 49.912 148.69c-2.7888 17.182-37.948 23.806-52.364 8.9317z" fill="#e5d32b" stop-color="#000000" stroke-width="2"/>
 </g>
</svg>
