<?xml version="1.0" encoding="UTF-8"?>
<!-- Created with Inkscape (http://www.inkscape.org/) -->
<svg width="666.67" height="666.67" version="1.1" viewBox="0 0 666.67 666.67" xmlns="http://www.w3.org/2000/svg">
 <g stroke="#000" stroke-width="2">
  <path d="m73.141 88.814c161.19-42.922 360.73-48.125 520.38 0 9.0455 2.7266 20.082 8.9199 20.082 20v537.85c0 11.08-8.9568 20-20.082 20h-520.38c-11.126 0-20.082-8.9199-20.082-20v-537.85c0-11.08 10.953-17.569 20.082-20z" fill="#930600" stop-color="#000000"/>
  <path d="m245.1 457.32c-35.755-55.94-88.162-215.11-88.235-354.09 0-111.62 136.17-103.07 176.47-103.23 40.304 0.16069 176.47-8.3889 176.47 103.23-0.0731 138.98-52.48 298.15-88.235 354.09-35.22-62.613-88.235-156.86-88.235-156.86s-53.016 94.25-88.235 156.86z" fill="#b91f18" stop-color="#000000"/>
  <path d="m321.72 281.56s-101.64-145.49-113.93-164.34c-12.295-18.852-14.344-16.393-14.344-51.639 0-35.246 35.656-38.115 35.656-38.115h104.83l104.83 1e-6s35.656 2.8689 35.656 38.115c0 35.246-2.0492 32.787-14.344 51.639-12.295 18.852-113.93 164.34-113.93 164.34s-4.918 7.7869-12.205 7.7869-12.205-7.7869-12.205-7.7869z" fill="#420000" stop-color="#000000"/>
 </g>
</svg>
