<?xml version="1.0" encoding="UTF-8"?>
<!-- Created with Inkscape (http://www.inkscape.org/) -->
<svg width="666.67" height="666.67" version="1.1" viewBox="0 0 666.67 666.67" xmlns="http://www.w3.org/2000/svg">
 <g stroke="#000" stroke-width="2">
  <path d="m162.99 538.24s-50.028-409.82-39.877-409.82 92.255 86.503 107.36 86.503 87.672-84.663 102.86-84.663 87.756 84.663 102.86 84.663 97.211-86.503 107.36-86.503-39.877 409.82-39.877 409.82z" fill="#e0c62e" stop-color="#000000"/>
  <g fill="#dd472e">
   <path d="m264.44 430.18c0-8.0775 61.588-71.171 71.171-71.171s66.609 59.435 66.609 66.609c0 7.1739-64.299 71.171-71.171 71.171-6.8727 0-66.609-58.531-66.609-66.609z" stop-color="#000000"/>
   <path d="m385.09 345.44c-1.7378 6.4854 37.327 43.489 42.339 42.339s26.106-61.356 22.562-64.901-63.163 16.076-64.901 22.562z" stop-color="#000000"/>
   <path d="m241.37 385.64c6.4854 1.7378 43.489-37.327 42.339-42.339s-61.356-26.106-64.901-22.562 16.076 63.163 22.562 64.901z" stop-color="#000000"/>
   <path d="m333.32 190.96c-7.1366 0-49.848 105.42-46.447 110.54s89.575 5.7491 92.894 0-39.311-110.54-46.447-110.54z" stop-color="#000000"/>
  </g>
 </g>
</svg>
