<?xml version="1.0" encoding="UTF-8"?>
<!-- Created with Inkscape (http://www.inkscape.org/) -->
<svg width="666.67" height="666.67" version="1.1" viewBox="0 0 666.67 666.67" xmlns="http://www.w3.org/2000/svg">
 <defs>
  <filter id="filter28151" x="-.48461" y="-.45408" width="1.9692" height="1.9081" color-interpolation-filters="sRGB">
   <feGaussianBlur stdDeviation="42.995044"/>
  </filter>
 </defs>
 <g stroke="#000">
  <path d="m250.54 253 87.077-86.966 163.74 164.01-87.624 86.967z" fill="#627080" stroke-width="2"/>
  <path d="m337.62 166.04 49.121-49.058 164.33 163.73-49.709 49.336zm76.114 250.97-22.019 21.854-43.369 110.01-147.02-83.953-82.56-144.63 112-47.547 19.772-19.746z" fill="#1b50a5" stroke-width="2"/>
  <g fill="#9cabbc" stroke-width="2">
   <path d="m486.18 216.06-35.24-35.112 24.168-24.057-25.556-96.667 215.56-58.889-58.444 215.78-96.222-25.556z"/>
   <path d="m144.52 365.41-133.41 76.585 26.452 24.852 124.17-71.282-17.286-30.113z"/>
   <path d="m299.6 521.04-76.929 134.52-24.76-26.72 71.506-125.03 30.173 17.256z"/>
  </g>
  <path d="m32.558 469.74 39.907-22.925 146.28 145.58-23.13 40.406z" fill="#5f3b00" stroke-width="2"/>
  <path d="m530.06 544.43 2.2917 88.229h-97.604v-229.17l97.604-1.1458-2.2917 83.073h25.144l-2.2917-83.073 97.604 1.1458v229.17h-97.604l2.2917-88.229z" fill="#1b50a5" filter="url(#filter28151)" stop-color="#000000" stroke-width="2.75" style="-inkscape-stroke:none;font-variation-settings:normal;mix-blend-mode:normal"/>
  <path d="m511.67 537.08 1.6667 64.167h-49.167v-166.67l49.167-0.83333-1.6667 60.417h61.923l-1.6667-60.417 49.167 0.83333v166.67h-49.167l1.6667-64.167z" fill="#9cabbc" stop-color="#000000" stroke-width="2" style="-inkscape-stroke:none;font-variation-settings:normal"/>
 </g>
</svg>
