<?xml version="1.0" encoding="UTF-8"?>
<!-- Created with Inkscape (http://www.inkscape.org/) -->
<svg width="666.67" height="666.67" version="1.1" viewBox="0 0 666.67 666.67" xml:space="preserve" xmlns="http://www.w3.org/2000/svg"><g transform="matrix(.88006 .88006 -.88006 .88006 335.61 -255.66)"><path d="m365.34 385.68 4.8228-295.63c-6.0345-25.625-18.559-54.112-36.83-73.236-18.271 19.124-30.795 47.611-36.83 73.236l4.8228 295.63c11.815 1.5238 24.135 0.68093 32.007 0.68093s20.192 0.84292 32.007-0.68093z" fill="#859fb8" fill-rule="evenodd" stop-color="#000000"/><path d="m296.5 90.046 36.83 21.264v275.05-369.55 369.55-275.05l36.83-21.264" fill="none" stop-color="#000000" stroke="#354f65" stroke-linejoin="bevel" stroke-width="1.607"/><path d="m365.34 385.68 4.8228-295.63c-6.0345-25.625-18.559-54.112-36.83-73.236-18.271 19.124-30.795 47.611-36.83 73.236l4.8228 295.63c11.815 1.5238 24.135 0.68093 32.007 0.68093s20.192 0.84292 32.007-0.68093z" fill="none" stop-color="#000000" stroke="#000" stroke-linecap="round" stroke-width="1.607"/></g><path d="m248.46 321.88c-1.1317-8.3759 1.959-14.217 8.9031-23.742l-44.929-44.929c-34.048 33.541-49.072 63.211-47.667 100.16 1.3786 36.251 28.925 69.262 54.097 94.434 25.171 25.171 58.183 52.718 94.434 54.097 36.947 1.4051 66.618-13.619 100.16-47.667l-44.929-44.929c-9.5244 6.9441-15.366 10.035-23.742 8.9031-22.783-3.0784-43.968-28.618-55.837-40.487-11.869-11.869-37.409-33.054-40.487-55.837z" fill="#772801" fill-rule="evenodd" stop-color="#000000" stroke="#000" stroke-width="2"/><g transform="matrix(.88006 .88006 -.88006 .88006 335.61 -255.66)"><path d="m369.13 463.65c-12.082 1.8521-24.402 2.3452-35.801 2.3452s-23.719-0.49311-35.801-2.3452l9.555 108.93c8.9582 0.80559 17.852 1.073 26.246 1.073 8.4085 0 17.319-0.26833 26.269-1.0753z" fill="#af5b01" fill-rule="evenodd" stop-color="#000000"/><path d="m306.17 561.48c9.2385 0.95601 18.47 1.2429 27.165 1.2429 8.8491 0 18.254-0.2972 27.656-1.2944m-55.916-11.39c9.6034 1.0494 19.221 1.3594 28.26 1.3594 9.0614 0 18.705-0.31163 28.333-1.3674m-57.649-12.436c9.9533 1.1446 19.946 1.4778 29.316 1.4778 9.3104 0 19.236-0.32899 29.127-1.4562m-58.966-11.408c10.126 1.1938 20.305 1.5388 29.84 1.5388 9.5705 0 19.791-0.34763 29.955-1.5525m-61.388-12.507c10.65 1.3516 21.398 1.7338 31.433 1.7338s20.783-0.38214 31.433-1.7338m-63.954-12.467c11.005 1.4667 22.145 1.8753 32.521 1.8753s21.516-0.40863 32.521-1.8753m-66.167-12.479c11.369 1.5921 22.916 2.0291 33.646 2.0291 10.645 0 22.093-0.43004 33.375-1.9913m-68.233-12.537c11.759 1.7347 23.747 2.2033 34.858 2.2033 11.022 0 22.906-0.46108 34.574-2.1617" fill="none" stop-color="#000000" stroke="#793e01" stroke-width="1.607"/><path d="m369.13 463.65c-12.082 1.8521-24.402 2.3452-35.801 2.3452s-23.719-0.49311-35.801-2.3452l9.555 108.93c8.9582 0.80559 17.852 1.073 26.246 1.073 8.4085 0 17.319-0.26833 26.269-1.0753z" fill="none" stop-color="#000000" stroke="#000" stroke-width="1.607"/></g><g fill-rule="evenodd" stroke="#000" stroke-width="2"><path d="m241.04 399.17-15.389-26.655 26.61 15.363h26.522v26.522l15.363 26.61-26.655-15.389h-26.451z" fill="#dfe000" stop-color="#000000"/><path d="m247.6 393.8-0.0298 25.296 25.296-0.0298 0.0298-25.296z" fill="#ff00fe" stop-color="#000000"/><path d="m120.13 613.92-46.957-20.431-20.431-46.957 49.221-28.029c7.1748 8.5927 14.767 16.655 22.154 24.042 7.4 7.4 15.478 15.005 24.065 22.172z" fill="#772801" stop-color="#000000"/></g></svg>
