<?xml version="1.0" encoding="UTF-8"?>
<!-- Created with Inkscape (http://www.inkscape.org/) -->
<svg width="500pt" height="500pt" version="1.1" viewBox="0 0 666.67 666.67" xml:space="preserve" xmlns="http://www.w3.org/2000/svg"><g transform="matrix(1.0067 0 0 1.0067 2.883 1.0034)" stroke="#000" stroke-linecap="round" stroke-width="1.9867"><circle cx="328.42" cy="250.27" r="247.05" fill="#42cf26" stop-color="#000000" stroke-linejoin="round"/><path d="m240.83 600.82c-80.798 0-164.7-7.1637-222.8-49.426 47.228 94.449 133.21 105.7 206.83 105.7 282.61 0 413.5-114.52 413.5-279.07 0-139.6-81.062-244.09-192.23-244.09-155.97 0-230.79 150.56-73.758 187.06-58.557-72.469-41.869-137.43 41.046-137.43 82.975 0 124.72 36.327 124.72 121.46 0 88.202-96.59 147-201.38 147-137.28 0-224.44-110.18-224.44-206.31 0-152.21 68.435-198.02 199.22-242.57-222.29 0-289.71 168.71-289.71 231.16 0 317.13 331.53 407.08 518.97 239.91-58.556 70.467-151.86 126.61-299.98 126.61z" fill="#ffe62d" stop-color="#000000"/></g></svg>
