<?xml version="1.0" encoding="UTF-8"?>
<!-- Created with Inkscape (http://www.inkscape.org/) -->
<svg width="666.67" height="666.67" version="1.1" viewBox="0 0 666.67 666.67" xmlns="http://www.w3.org/2000/svg">
 <g stroke="#000" stroke-linejoin="round">
  <g fill-rule="evenodd" stroke-width="2.1725">
   <path d="m460.44 147.17 13.116-73.314-33.089-43.395-37.971 17.9-16.516 47.841m-179.76 50.967-13.116-73.314 33.089-43.395 37.971 17.9 16.516 47.841" fill="#928f8c" stop-color="#000000" stroke-linecap="round" style="paint-order:normal"/>
   <path d="m503.42 233.03 153.07 33.041c5.7652 8.1588 9.0959 13.372 9.0959 13.372s-50.734 10.751-76.484 10.849c-27.066 0.10236-80.476-10.795-80.476-10.795m-345.37-46.466-153.07 33.041c-5.7652 8.1588-9.0959 13.372-9.0959 13.372s50.734 10.751 76.484 10.849c27.066 0.10236 80.476-10.795 80.476-10.795" fill="#bd8d6e" stop-color="#000000" stroke-linecap="round" style="paint-order:normal"/>
   <path d="m490.7 194.86s26.739-20.464 47.582-24.594c17.854 16.748 22.107 46.127 25.945 75.89l-60.812-13.127m-327.46-38.17s-26.739-20.464-47.582-24.594c-17.854 16.748-22.107 46.127-25.945 75.89l60.812-13.127" fill="#f9f9f9" stop-color="#000000" style="paint-order:normal"/>
   <path d="m433.8 491.4h-200.94l14.184-44.615c-53.134-32.977-89-95.541-89-167.29 0-106.13 78.479-192.16 175.29-192.16 96.808 0 175.29 86.035 175.29 192.16 0 71.536-35.656 133.94-88.766 167.14z" fill="#f9f9f9" stop-color="#000000" stroke-linecap="square" style="paint-order:normal"/>
  </g>
  <g fill="#252525" fill-rule="evenodd" stroke-width="2.1725">
   <path d="m166.69 219.74c63.991 19.257 59.875 84.178 110.35 117.56 7.334 7.334 21.652-2.3928 18.713-15.997-7.2601-33.597-22.807-64.594-16.4-96.63 3.5258-17.63 22.835-39.03 22.835-72.318 0-20.427-32.46-51.978-32.46-51.978-48.469 20.598-86.661 64.525-103.03 119.36z" stop-color="#000000" stroke-linecap="square" style="paint-order:normal"/>
   <path d="m489.05 191.17c-26.265-55.537-76.526-95.238-135.73-102.6 0 0-21.886 3.699-21.886 25.703 0 38.823 83.55 85.976 126.66 85.976 19.168 0.95997 30.959-9.0755 30.959-9.0755z" stop-color="#000000" stroke-linecap="square" style="paint-order:normal"/>
   <path d="m348.48 236.79c-24.792 26.383 6.2712 33.368 6.2712 63.261 0 37.721 27.773 78.653 66.177 78.653 34.036 0 52.345-32.795 52.345-58.854 0-40.279-8.5401-58.041-30.376-58.041-15.017 0-30.305-3.096-41.549-14.339-12.713-12.713-34.51-29.038-52.868-10.68z" stop-color="#000000" style="paint-order:normal"/>
  </g>
  <g fill-rule="evenodd" stroke-linecap="round" stroke-width="2.1725">
   <path d="m433.8 491.4 23.803 75c-32.187 59.583-80.356 69.808-124.27 69.808s-92.087-10.225-124.27-69.808l23.803-75h100.47z" fill="#bd8d6e" stop-color="#000000" style="paint-order:normal"/>
   <path d="m384.06 560.15a24.681 24.681 0 0 0 24.681 24.681 24.681 24.681 0 0 0 24.681-24.681 24.681 24.681 0 0 0-24.681-24.681 24.681 24.681 0 0 0-24.681 24.681zm-101.45 0a24.681 24.681 0 0 1-24.681 24.681 24.681 24.681 0 0 1-24.681-24.681 24.681 24.681 0 0 1 24.681-24.681 24.681 24.681 0 0 1 24.681 24.681z" fill="#252525" stop-color="#000000" style="paint-order:normal"/>
   <path d="m409.01 318.5a36.396 55.224 18.063 0 0 27.959 53.701 36.396 55.224 18.063 0 0 46.897-53.701 36.396 55.224 18.063 0 0-27.959-53.701 36.396 55.224 18.063 0 0-46.897 53.701zm-151.35 0a55.224 36.396 71.937 0 1-27.959 53.701 55.224 36.396 71.937 0 1-46.897-53.701 55.224 36.396 71.937 0 1 27.959-53.701 55.224 36.396 71.937 0 1 46.897 53.701z" fill="#fff" stop-color="#000000" style="paint-order:normal"/>
  </g>
  <path d="m469.22 317.41h-41.768m-230 0h41.768" fill="none" stop-color="#000000" stroke-linecap="square" stroke-width="10.862" style="paint-order:normal"/>
  <path d="m538.29 170.26c3.8224-0.75721 7.4465-0.96509 10.671-0.39664 40.556 7.1494 88.003 68.569 107.53 96.201l-92.254-19.914c-3.8382-29.763-8.0907-59.142-25.945-75.89zm-409.9 0c-3.8224-0.75721-7.4465-0.96509-10.671-0.39664-40.556 7.1494-88.003 68.569-107.53 96.201l92.254-19.914c3.8382-29.763 8.0907-59.142 25.945-75.89z" fill="#252525" fill-rule="evenodd" stop-color="#000000" stroke-linecap="round" stroke-width="2.1725" style="paint-order:normal"/>
 </g>
</svg>
