<?xml version="1.0" encoding="UTF-8"?>
<!-- Created with Inkscape (http://www.inkscape.org/) -->
<svg width="160" height="160" version="1.1" viewBox="0 0 160 160" xmlns="http://www.w3.org/2000/svg">
 <g>
  <circle cx="80" cy="80" r="80" fill="#d177f3" stop-color="#000000"/>
  <circle cx="80" cy="80" r="56" fill="#7e18a2" stop-color="#000000"/>
  <path d="m104.91 61.73-24.498 42.491-24.498-42.491zm-44.417 36.125a11.5 11.5 0 0 1-11.5 11.5 11.5 11.5 0 0 1-11.5-11.5 11.5 11.5 0 0 1 11.5-11.5 11.5 11.5 0 0 1 11.5 11.5zm61.592-0.13841a11.5 11.5 0 0 1-11.5 11.5 11.5 11.5 0 0 1-11.5-11.5 11.5 11.5 0 0 1 11.5-11.5 11.5 11.5 0 0 1 11.5 11.5zm-30.588-53.01a11.5 11.5 0 0 1-11.5 11.5 11.5 11.5 0 0 1-11.5-11.5 11.5 11.5 0 0 1 11.5-11.5 11.5 11.5 0 0 1 11.5 11.5z" fill="#d177f3" stop-color="#000000"/>
 </g>
</svg>
