<?xml version="1.0" encoding="UTF-8"?>
<!-- Created with Inkscape (http://www.inkscape.org/) -->
<svg width="160" height="160" version="1.1" viewBox="0 0 160 160" xmlns="http://www.w3.org/2000/svg">
 <g>
  <circle cx="80" cy="80" r="80" fill="#ff8637" stop-color="#000000"/>
  <circle cx="80" cy="80" r="56" fill="#c14d02" stop-color="#000000"/>
  <path d="m78.585 58.858c-0.52282-4.9743 1.6478-9.8497 5.6943-12.79 4.0465-2.9399 9.354-3.4978 13.923-1.4634 0 0 16.164 5.3384 17.959 30.928 1.7957 25.589-15.152 38.721-19.529 40.292 15.039-33.333-9.8194-45.64-9.8194-45.64-4.5693-2.0344-7.7062-6.3519-8.229-11.326z" fill="#ff8637" stop-color="#000000"/>
  <path d="m81.523 100.99c0.52282 4.9743-1.6478 9.8497-5.6943 12.79-4.0465 2.9399-9.354 3.4978-13.923 1.4634 0 0-16.164-5.3384-17.959-30.928-1.7957-25.589 15.152-38.721 19.529-40.292-15.039 33.333 9.8194 45.64 9.8194 45.64 4.5693 2.0344 7.7062 6.3519 8.229 11.326z" fill="#ff8637" stop-color="#000000"/>
 </g>
</svg>
