<?xml version="1.0" encoding="UTF-8"?>
<!-- Created with Inkscape (http://www.inkscape.org/) -->
<svg width="500pt" height="500pt" version="1.1" viewBox="0 0 666.67 666.67" xml:space="preserve" xmlns="http://www.w3.org/2000/svg"><g stroke="#000" stroke-linecap="round" stroke-width="2"><path d="m334.08 659.95-291.72-483.68h580.64z" fill="#ffe62d" stop-color="#000000"/><path d="m439.69 555.92a133.94 133.94 0 0 1-49.026-182.97 133.94 133.94 0 0 1 182.97-49.026 133.94 133.94 0 0 1 49.026 182.97 133.94 133.94 0 0 1-182.97 49.026zm-346.65-231.99a133.94 133.94 0 0 1 182.97 49.026 133.94 133.94 0 0 1-49.026 182.97 133.94 133.94 0 0 1-182.97-49.026 133.94 133.94 0 0 1 49.026-182.97zm374.24-184.21a133.94 133.94 0 0 1-133.94 133.94 133.94 133.94 0 0 1-133.94-133.94 133.94 133.94 0 0 1 133.94-133.94 133.94 133.94 0 0 1 133.94 133.94z" fill="#119efa" stop-color="#000000"/><path d="m434.18 44.751c39.21 67.914 22.344 187.35-100.84 189.93-123.19-2.5788-140.05-122.02-100.84-189.93-72.624 72.624-92.521 184.91 6.1867 241.9-98.707-56.989-186 16.386-212.58 115.59 39.21-67.914 151.08-113.03 214.91-7.633 59.36 107.97-35.643 182.3-114.06 182.3 99.206 26.582 206.4-12.33 206.4-126.31 0 113.98 107.19 152.89 206.4 126.31-78.42 0-173.42-74.325-114.06-182.3 63.827-105.39 175.7-60.281 214.91 7.633-26.582-99.206-113.88-172.58-212.58-115.59 98.707-56.989 78.81-169.27 6.1867-241.9z" fill="#ffe62d" stop-color="#000000"/></g></svg>
