<?xml version="1.0" encoding="UTF-8"?>
<!-- Created with Inkscape (http://www.inkscape.org/) -->
<svg width="160" height="160" version="1.1" viewBox="0 0 160 160" xmlns="http://www.w3.org/2000/svg">
 <g>
  <circle cx="80" cy="80" r="80" fill="#23bd03" stop-color="#000000"/>
  <circle cx="80" cy="80" r="56" fill="#157602" stop-color="#000000"/>
  <g fill="#23bd03">
   <path d="m71.557 39.723s-24.775-1.7473-26.851 23.114c-2.0733 24.827 26.851 28.651 31.834 25.19-34.187-22.422-4.9827-48.304-4.9827-48.304z" stop-color="#000000"/>
   <path d="m120.37 71.561s1.7472-24.775-23.114-26.851c-24.827-2.0733-28.651 26.851-25.19 31.834 22.422-34.187 48.305-4.9827 48.305-4.9827z" stop-color="#000000"/>
   <path d="m88.534 120.38s24.775 1.7473 26.851-23.114c2.0732-24.827-26.851-28.651-31.834-25.19 34.187 22.422 4.9827 48.304 4.9827 48.304z" stop-color="#000000"/>
   <path d="m39.719 88.538s-1.7473 24.775 23.114 26.851c24.827 2.0732 28.651-26.851 25.19-31.834-22.422 34.187-48.305 4.9827-48.305 4.9827z" stop-color="#000000"/>
  </g>
 </g>
</svg>
